<svg xmlns="http://www.w3.org/2000/svg" viewBox="0 0 749 911.18"><defs><style>.cls-1{fill:none;}.cls-2{fill:#fff;}</style></defs><g id="Calque_2" data-name="Calque 2"><g id="Calque_1-2" data-name="Calque 1"><g id="Calque_2-2" data-name="Calque 2"><g id="Calque_1-2-2" data-name="Calque 1-2"><path class="cls-1" d="M738.13,332.77c-1.23,1.34-1.64,4.07-1.4,6,.52,4.1,2,8.08,2.61,12.18,1.73,12,3.35,24,4.72,36A18.57,18.57,0,0,1,743,394.8c-9.07,26.23-20,51.55-38,73.12-3.84,4.6-8.87,8.38-11.94,13.4-5.34,8.74-9.76,18.06-14.24,27.3C673.42,519.71,669,531.24,663.1,542c-11.51,21.18-30.28,31.61-53.84,34-7,.69-14,1-20.93,1.16-3.68.09-6.29,1.39-7,5-1.32,6.5-2.53,13-3.28,19.62-1.37,12-6.27,21.26-19.39,25.63-.62-6.83-1.74-13.35-1.72-19.87q.21-49.72.94-99.46c.19-14.11-1.44-27.61-13.48-36.93-4.9-3.8-10.9-6.26-16.59-8.94-4.34-2-9.07-3.29-13.47-5.25-20.11-8.93-26.71-20.58-24.07-42.4.54-4.46,1.28-8.9,2.18-13.3,7.7-37.5-21.89-83.81-59.12-92.58-8-1.88-15.78-1.36-23.74.25a129.19,129.19,0,0,1-60.86-2.31c-24.72-6.86-45.37.28-63.23,17.23-19,18-29.41,40.12-29.37,66.56a71.08,71.08,0,0,0,2.58,17.21c4.43,17.32-.65,32.34-14.7,43.52-6.77,5.39-13.26,11.17-19.51,17.15-12.29,11.76-19.34,26.22-20.17,43.29-.49,9.94-.09,19.93-.09,31.26,4-2.47,6.89-3.93,9.38-5.91,5.88-4.65,11.69-9.39,17.29-14.37,14.45-12.87,29.68-23.53,51.93-18.78-4.47-6.39-9.2-10.34-15.23-11.84-8.36-2.08-17-3.08-25.43-4.86-6-1.25-11.8-3-18.34-4.73,11.89-10.24,24.5-12.24,38.63-10.44,31.24,4,60.5,28.45,68.81,58.49,3.71,13.41-.31,25.49-11.34,34.12-26.24,20.52-54.13,22.26-84.21,5a37,37,0,0,0-22-4.89c-7.47.6-12.15,4.48-13.73,11.62q-3.33,15.11-5.94,30.35c-1.11,6.55-1.55,13.22-2.36,20.49-9.21-2.74-15.84-8-18.67-17a81.37,81.37,0,0,1-3-16.15c-1.62-16-2.66-17.16-18.67-17.42-18-.3-34.61-4.59-48.91-16-9.93-7.93-17-18.1-23.2-29.1C69,513.18,58.79,494.88,48,476.93A649.66,649.66,0,0,1,0,379V911H209.51c9.4-47.3,18.54-93.28,27.69-139.36,3.94-1.34,7.14-.7,9.66,2.74s5.77,6.6,7.81,10.36c15.85,29.15,41.43,44.7,72.69,52.23A168.43,168.43,0,0,0,349,840.46a15.67,15.67,0,0,0,15.47-7.37c4-6.24,7.16-13,11.17-20.39-20.52-7.56-37.44-18.17-47-37.94,5.83-3.88,12.82-5,19.95-5.7,8.12-.74,16.3-1,24.36-2.12a31,31,0,0,0,26.3-25.69c-11.23-1.07-22.42-2.3-33.64-3.17-23.07-1.78-46.15-3.33-69.23-5-8.24-.61-16.06-2.7-23-7.42-7.49-5.09-9.7-10-6.52-18.36,2.19-5.78,6-10.94,9.21-16.34a9.65,9.65,0,0,1,2.09-2.14c12.26-10.55,18.28-23.44,15.06-39.86a26.46,26.46,0,0,1,0-4.71h19.41c.64-2.07,1.13-3.94,1.79-5.76,3.29-9,10.92-12.18,19.62-8a21.11,21.11,0,0,1,4.27,2.58c12.49,10.17,26.48,11.54,41.47,7.25,12.88-3.69,25.6-3.81,38.11,1.51,8.53,3.63,12.06,9.06,10.23,18.12-1.58,7.78-4.39,15.31-6.64,23a17.79,17.79,0,0,0-.3,2.07c17.16,3.41,33.83,8.29,43.65,24.52,9.58,15.81,7.81,32.87,4.05,51l31.85-7.86c2.56,10.88,1.66,21.22-.56,31.53a131.6,131.6,0,0,1-22.66,50.65,65.9,65.9,0,0,1-26.77,21.76c-23.46,10.46-47.6,18.21-73.4,19.36-37.35,1.67-70.59-9.34-99.3-33.47-10.2-8.57-20.21-17.37-30.32-26-1.34-1.15-2.8-2.15-4.93-3.77.49,9.13,1.08,17.34,1.35,25.56.92,28.31-7.86,52.4-30.85,70.22-.77.6-1.56,1.13-3.68,2.66H749V306C748,316,745.16,325.16,738.13,332.77ZM515.11,568c-7.93,12.16-19.91,18.52-33.69,21.3-25.72,5.2-49.34.31-69.73-16.73-8.47-7.08-14.62-15.94-15.95-27.36-1.79-15.21,7-28.53,21.91-31.72,22.75-4.86,45.66-9,68.5-13.39a9.77,9.77,0,0,1,1.71,0c2.07,4.41,1.31,6.86-3.3,8.61-8.19,3.1-16.12,6.89-25.39,10.93,12.23,2.63,23.18,4.9,34.08,7.38a57.08,57.08,0,0,1,10.91,3.42C519.4,537.38,524.27,554,515.11,568Z"/><path class="cls-2" d="M749,273v33c-1,10-3.84,19.14-10.87,26.75-1.23,1.34-1.64,4.07-1.4,6,.52,4.1,2,8.08,2.61,12.18,1.73,12,3.35,24,4.72,36a18.57,18.57,0,0,1-1.11,7.85c-9.07,26.23-20,51.55-38,73.12-3.84,4.6-8.87,8.38-11.94,13.4-5.34,8.74-9.76,18.06-14.24,27.3-5.35,11.11-9.77,22.64-15.67,33.4-11.51,21.18-30.28,31.61-53.84,34-7,.69-14,1-20.93,1.16-3.68.09-6.29,1.39-7,5-1.32,6.5-2.53,13-3.28,19.62-1.37,12-6.27,21.26-19.39,25.63-.62-6.83-1.74-13.35-1.72-19.87q.21-49.72.94-99.46c.19-14.11-1.44-27.61-13.48-36.93-4.9-3.8-10.9-6.26-16.59-8.94-4.34-2-9.07-3.29-13.47-5.25-20.11-8.93-26.71-20.58-24.07-42.4.54-4.46,1.28-8.9,2.18-13.3,7.7-37.5-21.89-83.81-59.12-92.58-8-1.88-15.78-1.36-23.74.25a129.19,129.19,0,0,1-60.86-2.31c-24.72-6.86-45.37.28-63.23,17.23-19,18-29.41,40.12-29.37,66.56a71.08,71.08,0,0,0,2.58,17.21c4.43,17.32-.65,32.34-14.7,43.52-6.77,5.39-13.26,11.17-19.51,17.15-12.29,11.76-19.34,26.22-20.17,43.29-.49,9.94-.09,19.93-.09,31.26,4-2.47,6.89-3.93,9.38-5.91,5.88-4.65,11.69-9.39,17.29-14.37,14.45-12.87,29.68-23.53,51.93-18.78-4.47-6.39-9.2-10.34-15.23-11.84-8.36-2.08-17-3.08-25.43-4.86-6-1.25-11.8-3-18.34-4.73,11.89-10.24,24.5-12.24,38.63-10.44,31.24,4,60.5,28.45,68.81,58.49,3.71,13.41-.31,25.49-11.34,34.12-26.24,20.52-54.13,22.26-84.21,5a37,37,0,0,0-22-4.89c-7.47.6-12.15,4.48-13.73,11.62q-3.33,15.11-5.94,30.35c-1.11,6.55-1.55,13.22-2.36,20.49-9.21-2.74-15.84-8-18.67-17a81.37,81.37,0,0,1-3-16.15c-1.62-16-2.66-17.16-18.67-17.42-18-.3-34.61-4.59-48.91-16-9.93-7.93-17-18.1-23.2-29.1C69,513.18,58.79,494.88,48,476.93A649.66,649.66,0,0,1,0,379v-4c2.85-2.54,5.44-6.76,8.62-7.27,6.12-1,8.58-4.63,10.19-9.49,1.51-4.56,2.5-9.3,3.63-14,1.43-5.94-.42-10.83-5-14.77-4.15-3.61-8.59-6.93-12.36-10.88A12.91,12.91,0,0,1,1.63,311c-.4-9.81-.16-19.65-.16-29.48v-8.38C16,271.64,23.5,263,28,250.62c3.61-9.89,7.82-19.57,11.88-29.66C36,216.06,24,218.89,23.63,207.38c1.25-.59,2.28-1.11,3.34-1.56,13.16-5.58,26.3-11.24,39.52-16.67,2.75-1.13,3.68-2.48,3.45-5.49-.43-5.47-.35-11-.43-16.47-.39-24.61,9.35-43.85,30.34-57.09,4.78-3,9.42-6.34,14.43-8.91,14.76-7.6,28-17.3,40.42-28.23a64.18,64.18,0,0,1,7.77-6.27c21.72-13.88,43.85-27.16,65.18-41.62,12.6-8.54,24.79-11.39,39.65-6.66,12.22,3.89,25.28,3.48,35.34-6C311,4.58,320.59,2.34,331.31,1.79,336.89,1.5,342.44.62,348,0h3c4.63,14.84,15.48,21.14,30.26,22.46s29.47,3,44.21,4.53c12.75,1.29,25,4.1,35.42,12.09a18.37,18.37,0,0,0,13.57,3.68c3.15-.29,6.27-.91,9.41-1.26,19-2.1,37.64-2.25,53.76,10.59A97.19,97.19,0,0,0,546,57.51c27.6,17.7,55.08,35.58,82.85,53,10.69,6.7,22.4,11.78,33,18.55,15,9.58,24.72,23.29,26.63,41.38a144.85,144.85,0,0,1,.09,23.93c-.22,3.41.71,4.6,3.61,5.72,12.87,5,25.6,10.38,38.53,15.21,4.16,1.56,5.3,3.74,3.3,7.31a7,7,0,0,1-4.26,2.94c-5.9,1.22-11.89,2-17.1,2.9,3.44,9,6.74,17.28,9.81,25.66C727,266.49,735.92,272.66,749,273Z"/><path class="cls-1" d="M749,0V273c-13.08-.36-22-6.53-26.5-18.93-3.07-8.38-6.37-16.68-9.81-25.66,5.21-.85,11.2-1.68,17.1-2.9a7,7,0,0,0,4.26-2.94c2-3.57.86-5.75-3.3-7.31-12.93-4.83-25.66-10.22-38.53-15.21-2.9-1.12-3.83-2.31-3.61-5.72a144.85,144.85,0,0,0-.09-23.93c-1.91-18.09-11.58-31.8-26.63-41.38-10.64-6.77-22.35-11.85-33-18.55-27.77-17.4-55.25-35.28-82.85-53a97.19,97.19,0,0,1-8.37-5.42c-16.16-12.8-34.78-12.65-53.8-10.55-3.14.35-6.26,1-9.41,1.26a18.37,18.37,0,0,1-13.57-3.68c-10.4-8-22.67-10.8-35.42-12.09-14.74-1.49-29.45-3.21-44.21-4.53S355.63,14.84,351,0Z"/><path class="cls-1" d="M348,0c-5.56.62-11.11,1.5-16.69,1.79-10.72.55-20.33,2.79-28.67,10.64-10.06,9.46-23.12,9.87-35.34,6-14.86-4.73-27.05-1.88-39.65,6.66-21.33,14.46-43.46,27.74-65.18,41.62A64.34,64.34,0,0,0,154.7,73c-12.42,10.89-25.7,20.59-40.42,28.19-5,2.57-9.65,5.89-14.43,8.91-21,13.24-30.73,32.48-30.34,57.09.08,5.49,0,11,.43,16.47.23,3-.7,4.36-3.45,5.49C53.27,194.58,40.13,200.24,27,205.82c-1.06.45-2.09,1-3.34,1.56C24,218.89,36,216.06,39.9,221c-4.06,10.09-8.27,19.77-11.88,29.66C23.5,263,16,271.64,1.5,273.19v8.38c0,9.83-.24,19.67.16,29.48a12.91,12.91,0,0,0,3.45,7.59c3.77,3.95,8.21,7.27,12.36,10.88,4.55,3.94,6.4,8.83,5,14.77-1.13,4.67-2.12,9.41-3.63,14-1.61,4.86-4.07,8.49-10.19,9.49-3.18.51-5.77,4.73-8.62,7.27V0Z"/><path class="cls-2" d="M500.66,752.52l-31.85,7.86c3.76-18.09,5.53-35.15-4.05-51-9.82-16.23-26.49-21.11-43.65-24.52a17.79,17.79,0,0,1,.3-2.07c2.25-7.64,5.06-15.17,6.64-23,1.83-9.06-1.7-14.49-10.23-18.12-12.51-5.32-25.23-5.2-38.11-1.51-15,4.29-29,2.92-41.47-7.25a21.11,21.11,0,0,0-4.27-2.58c-8.7-4.15-16.33-1-19.62,8-.66,1.82-1.15,3.69-1.79,5.76H293.15a26.46,26.46,0,0,0,0,4.71c3.22,16.42-2.8,29.31-15.06,39.86A9.65,9.65,0,0,0,276,690.8c-3.18,5.4-7,10.56-9.21,16.34-3.18,8.41-1,13.27,6.52,18.36,6.94,4.72,14.76,6.81,23,7.42,23.08,1.71,46.16,3.26,69.23,5,11.22.87,22.41,2.1,33.64,3.17a31,31,0,0,1-26.3,25.69c-8.06,1.16-16.24,1.38-24.36,2.12-7.13.65-14.12,1.82-19.95,5.7,9.57,19.77,26.49,30.38,47,37.94-4,7.41-7.2,14.15-11.17,20.39a15.68,15.68,0,0,1-15.4,7.53A168.36,168.36,0,0,1,327.36,837c-31.26-7.53-56.84-23.08-72.69-52.23-2-3.76-5.25-6.87-7.81-10.36s-5.72-4.08-9.66-2.74c-9.15,46.08-18.29,92.06-27.69,139.36,1.06-.77,1.79-1.28,2.35-1.68s.94-.68,1.33-1c23-17.82,31.77-41.91,30.85-70.22-.27-8.22-.86-16.43-1.35-25.56,2.13,1.62,3.59,2.62,4.93,3.77,10.11,8.67,20.12,17.47,30.32,26,28.71,24.13,61.95,35.14,99.3,33.47,25.8-1.15,49.94-8.9,73.4-19.36a65.9,65.9,0,0,0,26.77-21.76,131.6,131.6,0,0,0,22.66-50.65C502.32,773.74,503.22,763.4,500.66,752.52ZM377.29,724c-1.83,4.78-6.37,6.36-11.11,6-10.45-.74-20.89-1.7-31.29-2.94-14.87-1.77-29.75-3.53-44.51-6-4.9-.82-9.75-3.38-14-6.13-1.57-1-1.31-4.86-2-7.74,17.58-3.13,34.25-6.19,50.95-9,10.17-1.73,20.38-3.21,30.59-4.67,7.26-1,14.77-1.65,19.36,5.59C380.25,706.79,380.54,715.46,377.29,724Z"/><path class="cls-1" d="M377.29,724c-1.83,4.78-6.37,6.36-11.11,6-10.45-.74-20.89-1.7-31.29-2.94-14.87-1.77-29.75-3.53-44.51-6-4.9-.82-9.75-3.38-14-6.13-1.57-1-1.31-4.86-2-7.74,17.58-3.13,34.25-6.19,50.95-9,10.17-1.73,20.38-3.21,30.59-4.67,7.26-1,14.77-1.65,19.36,5.59C380.25,706.79,380.54,715.46,377.29,724Z"/><path class="cls-2" d="M515.11,568c-7.93,12.16-19.91,18.52-33.69,21.3-25.72,5.2-49.34.31-69.73-16.73-8.47-7.08-14.62-15.94-15.95-27.36-1.79-15.21,7-28.53,21.91-31.72,22.75-4.86,45.66-9,68.5-13.39a9.77,9.77,0,0,1,1.71,0c2.07,4.41,1.31,6.86-3.3,8.61-8.19,3.1-16.12,6.89-25.39,10.93,12.23,2.63,23.18,4.9,34.08,7.38a57.08,57.08,0,0,1,10.91,3.42C519.4,537.38,524.27,554,515.11,568Z"/><path class="cls-1" d="M377.29,724c-1.83,4.78-6.37,6.36-11.11,6-10.45-.74-20.89-1.7-31.29-2.94-14.87-1.77-29.75-3.53-44.51-6-4.9-.82-9.75-3.38-14-6.13-1.57-1-1.31-4.86-2-7.74,17.58-3.13,34.25-6.19,50.95-9,10.17-1.73,20.38-3.21,30.59-4.67,7.26-1,14.77-1.65,19.36,5.59C380.25,706.79,380.54,715.46,377.29,724Z"/></g></g></g></g></svg>