<svg xmlns="http://www.w3.org/2000/svg" viewBox="0 0 1061.63 534.5"><defs><style>.cls-1,.cls-2{fill:#fff;}.cls-1{stroke:#fff;stroke-miterlimit:10;}</style></defs><g id="Calque_2" data-name="Calque 2"><g id="Calque_1-2" data-name="Calque 1"><path class="cls-1" d="M367.75,191.5c-.87,109-85.62,194.85-191.63,190.36-71-3-122.26-40-154.79-102.42C-19,202.05.77,100.87,67.6,44.82,120,.89,179.86-11.3,244.33,12.37,311.42,37,349.69,87.42,363.6,156.81,365.89,168.19,366.41,179.93,367.75,191.5Z"/><path class="cls-2" d="M1061.41,534h-14.66c-181.6,0-363.22,1.62-544.79-.69-118.81-1.52-237.58-8-356.28-13.94-34.61-1.74-69.09-8.36-103.33-14.45-26.24-4.67-26-5.87-26-33V451.51c4.12-.4,7.64-1.05,11.16-1,202.5.13,405-.55,607.5.82,115.16.79,230.32,4.8,344.82,18.71,23.4,2.84,46.43,8.74,69.57,13.5,9.09,1.87,12.82,7.65,12.19,17.2C1060.87,511.24,1061.41,521.85,1061.41,534Z"/><path class="cls-2" d="M377.12,100.39c29.93,0,58.72-1.14,87.38.35,25.44,1.31,43.36,15.44,51.92,39.74A111.72,111.72,0,0,1,519.61,205c-7.48,30.75-30.41,48.91-63.41,50.65-9.22.49-18.49.07-29.49.07v125H377.12Zm50.21,38.2v78.63c15.73-.22,33.21,3.76,41.46-11.34,9.87-18.09,9.34-39.86.15-57.76C460.8,132.28,442.51,140.24,427.33,138.59Z"/><path class="cls-2" d="M882.22,279c1-17.66.57-35.44,3.17-52.77,5.26-35.12,26.35-52.38,60.88-52s56.17,16.68,59.25,51.63a611.11,611.11,0,0,1,.08,106.77c-3.15,35.92-24.5,51.75-60.26,51.68-35.09-.06-54.89-16.7-60-52.57C882.85,314.31,883.17,296.55,882.22,279Zm50.3-.1c0,17.12-.41,34.26.18,51.36.27,8,2.25,15.84,13.39,15.72,10.34-.11,12.57-7.27,12.66-14.86q.62-51.37.14-102.74c-.07-8.44-3.38-16.5-13.33-16.25-9.79.24-12.79,8.35-13,16.78C932.23,245.54,932.48,262.2,932.52,278.87Z"/><path class="cls-2" d="M764.43,280.21c-1.38,18.9-1.27,38.08-4.47,56.7-5.6,32.48-25.71,47.39-60.12,47.31-33.08-.07-55.5-15.31-58.31-47.34a661.83,661.83,0,0,1,0-115c2.83-32.16,26.68-48.31,59.68-47.74,33.24.57,53.28,15.89,58.67,47.73C763.13,241,763,260.63,764.43,280.21Zm-50.72.55c0-17.59.32-35.19-.14-52.77-.21-8.45-3.88-17.35-13.46-15.38-5.1,1-12.05,9.78-12.23,15.23-1.13,34.22-.82,68.49-.41,102.74.1,8.13,2.64,15.7,13.71,15.37,10.38-.32,12.11-7.7,12.36-15.21C714.08,314.1,713.7,297.42,713.71,280.76Z"/><path class="cls-2" d="M841.4,121.19v55.56h30.06v34.1l-30.07,1.46V285c0,13.92-.1,27.85,0,41.76.18,17.65,2.08,19.38,19.16,18.66,3.16-.14,6.32,0,11.37,0,0,10.26.45,20.35-.32,30.34-.19,2.47-4.38,6.6-6.73,6.6-15.12,0-31,1.77-45.18-2.19-19.38-5.41-25.84-23-26.18-41.8-.65-36.18-.38-72.37-.48-108.56,0-5.49,0-11,0-17.25l-19.6-1.73V178l19.12-2.41V121.19Z"/><path class="cls-2" d="M366.83,388.54v36.79H11.07V388.54Z"/><path class="cls-2" d="M630,425.13V393.6h385.91v31.53Z"/><path class="cls-2" d="M535.85,178.78c25.59-6.31,44.87-3.12,48.22,6.1l46.83-12.24V227c-8.16-1.64-15.66-4.07-23.26-4.47-15.33-.82-24.26,8.06-24.31,23.48-.12,44.48,0,89,0,134.52H535.85Z"/><path class="cls-2" d="M218.85,303.58c1.33-6.57,2-12.82-1.5-18.7-3.62-6.07-9.79-7.76-16.19-9.18.53-1.78,1-3.35,1.49-4.94s.85-3,1.13-4.46c.54-2.88-.38-4.74-3-6.06-4.94-2.49-10.07-2.35-15.26-.89-5.43,1.51-10.45.85-15-2.75a8.18,8.18,0,0,0-2.09-1.15c-3-1.15-5.35-.13-6.61,2.8-.33.77-.59,1.58-.94,2.51h-7a12.85,12.85,0,0,0,0,2.17c1,5.49-1.16,9.71-4.81,13.66a33.56,33.56,0,0,0-5,7.8c-1.21,2.42-.52,4.47,1.78,5.91,1.94,1.22,4.11,2.55,6.3,2.81,7.44.89,14.93,1.32,22.4,1.94l18.31,1.53a11.12,11.12,0,0,1-10,9.53c-2.93.31-5.88.48-8.82.77-2.43.24-4.86.56-7.06,2.14,3.53,7.45,10,11.24,17.3,14.07-1.4,2.55-2.61,4.89-4,7.16a5.6,5.6,0,0,1-5.9,2.91c-2-.26-3.91-.44-5.84-.83C156.16,329.8,146,324,139.65,312.5a16,16,0,0,0-3.05-3.9,4.37,4.37,0,0,0-2.79-.86c-.32,0-.81,1.2-.95,1.9q-3.87,19.25-7.67,38.5c-.71,3.6-1.4,7.19-2.17,11.15.6-.37.86-.51,1.09-.68a28.13,28.13,0,0,0,10.16-13.92c2-5.92,1.69-12,1.3-18.09-.07-1,0-2.1,0-3.41.89.72,1.56,1.24,2.21,1.79,3.55,3,7.06,6.13,10.64,9.13A51.22,51.22,0,0,0,182,346.4c10.94.07,21.07-3,30.87-7.55a23.69,23.69,0,0,0,9.33-7.89,48.65,48.65,0,0,0,8.37-19.3,24.94,24.94,0,0,0,0-10.91ZM216,214.87l0-.39c2.75-1.18,5.5-2.35,8.25-3.55.55-.24,1.29-.46,1.53-.92a3.15,3.15,0,0,0,.18-2c0-.21-.95-.43-1.4-.35-8.26,1.59-16.53,3.13-24.76,4.87-5.09,1.08-8.06,5.05-8.08,10.25a13.35,13.35,0,0,0,4,9.79c7,7.11,15.59,9.71,25.41,8.39,4.85-.65,9.35-2.14,12.82-5.83,6.43-6.82,4.18-14.83-4.85-17.31-.42-.11-.83-.22-1.25-.31Z"/><path d="M175.27,22.91c1.81,5.29,5.69,7.69,11.1,8.23,7,.7,14.08,1.35,21,2.54,2.92.5,5.69,2.17,8.37,3.6a9,9,0,0,0,5.76,1.29c4.94-.72,9.93-1.46,14.83-.12a26.5,26.5,0,0,1,7,3.08c12.38,7.79,24.65,15.75,37,23.57,3.74,2.36,7.83,4.18,11.44,6.71,5.43,3.79,8,9.3,8.2,15.93.06,2.15.05,4.31-.07,6.45a2.43,2.43,0,0,0,1.8,2.77c4.43,1.67,8.83,3.4,13.18,5.24.83.34,1.91,1.22,2,2,.15,1.45-1.14,2-2.45,2.21l-5.42.94a12.3,12.3,0,0,0,.34,1.39c.87,2.29,1.87,4.55,2.62,6.88,1.58,4.9,4.66,7.86,10.47,8.15-.32,5.36-.42,10.69-1.06,15.95-.24,1.93-1.58,3.83-2.74,5.53a4.84,4.84,0,0,0-.82,3.79c.84,5.21,1.73,10.43,2.38,15.66a11.32,11.32,0,0,1-.57,4.86c-3.08,9.13-6.57,18.22-13.17,25.34-5.9,6.38-9.2,14-12.78,21.59-.91,1.95-1.81,3.9-2.77,5.82-4.15,8.28-11.07,12.41-20.08,13.33-2.5.26-5,.32-7.55.44-2.17.1-2.77.58-3.16,2.78-.52,2.9-.87,5.84-1.51,8.72-.79,3.57-3.06,5.85-6.74,7a44.35,44.35,0,0,1-.57-5.05c0-12,.21-24,.22-36a59.46,59.46,0,0,0-.71-9.89,10.38,10.38,0,0,0-5.67-7.57c-2.49-1.32-5.11-2.38-7.67-3.56-1.73-.8-3.51-1.5-5.15-2.45-4.45-2.59-6.29-6.63-5.88-11.64.28-3.43,1-6.81,1.3-10.23,1.18-13.2-9.62-28.23-22.28-31.23-3.72-.87-7.32-.06-11,.51A45,45,0,0,1,175,136.28c-9.9-2.86-18,.19-24.94,7.28a32,32,0,0,0-9.69,21.7,28.69,28.69,0,0,0,.81,7.66c1.68,7-.16,12.55-5.81,17a86.3,86.3,0,0,0-7.43,6.62,23.21,23.21,0,0,0-6.86,16.61c0,3.24,0,6.48,0,10.15,1.47-1,2.7-1.62,3.77-2.48q3.53-2.82,6.93-5.81c5.08-4.44,10.61-7.6,18.11-6.19-1.62-2.37-3.36-3.79-5.77-4.29-5.16-1.08-10.33-2.13-15.5-3.19l-.22-.69a37.69,37.69,0,0,1,5-2.7c5.84-2.13,11.56-1.08,17,1.34,8.69,3.86,14.87,10.14,17.6,19.43,1.51,5.1,0,9.34-4.12,12.63-9.32,7.47-19.74,8.23-30.61,2.21a14.63,14.63,0,0,0-8.62-2.09c-2.89.26-4.54,1.59-5.09,4.45-1.17,6.09-2.24,12.19-3.39,18.46-3-.83-5.58-2.61-6.52-5.94a71,71,0,0,1-1.44-8c-.62-3.89-1.29-4.51-5.28-4.57-5.6-.07-11-.84-16-3.64a26.28,26.28,0,0,1-10.12-10c-10.73-19-22.74-37.27-30.53-57.79a5.35,5.35,0,0,0-.57-.89V161c1-.76,1.89-1.91,3-2.21a5.46,5.46,0,0,0,4.12-4.46c.34-1.37.65-2.75,1-4.1a5.11,5.11,0,0,0-1.8-5.61,50.17,50.17,0,0,1-3.87-3.41,5.75,5.75,0,0,1-1.79-3.07c-.19-4.77-.08-9.54-.08-14.4,5.51-.68,8.25-4.25,9.94-9,1-2.89,2.17-5.75,3.46-8.54.77-1.67.21-2.31-1.33-2.77a9,9,0,0,1-2.83-1.23C54,101,54.19,99.45,56,98.67c4.58-1.94,9.15-3.89,13.76-5.77a2.38,2.38,0,0,0,1.71-2.66c-.12-1.65-.08-3.31-.15-5C71,75.81,74.64,68.48,82.72,63.38,88.47,59.74,94.19,56,99.83,52.23c2.59-1.75,4.82-4,7.43-5.73,7.59-5,15.29-9.83,23-14.73,3.13-2,6.49-3.3,10.25-2.89A50.24,50.24,0,0,1,145.85,30c4.1.91,8,.61,11.24-2.37a15.87,15.87,0,0,1,10.19-4.11c1.57-.09,3.12-.43,4.67-.65Z"/><path d="M218.85,303.58l11.67-2.83a24.94,24.94,0,0,1,0,10.91,48.65,48.65,0,0,1-8.37,19.3,23.69,23.69,0,0,1-9.33,7.89c-9.8,4.51-19.93,7.62-30.87,7.55a51.22,51.22,0,0,1-33.55-12.29c-3.58-3-7.09-6.09-10.64-9.13-.65-.55-1.32-1.07-2.21-1.79,0,1.31-.06,2.37,0,3.41.39,6.09.68,12.17-1.3,18.09a28.13,28.13,0,0,1-10.16,13.92c-.23.17-.49.31-1.09.68.77-4,1.46-7.55,2.17-11.15q3.82-19.25,7.67-38.5c.14-.7.63-1.9.95-1.9a4.37,4.37,0,0,1,2.79.86,16,16,0,0,1,3.05,3.9c6.32,11.51,16.51,17.3,28.94,19.83,1.93.39,3.89.57,5.84.83a5.6,5.6,0,0,0,5.9-2.91c1.35-2.27,2.56-4.61,4-7.16C177,320.26,170.52,316.47,167,309c2.2-1.58,4.63-1.9,7.06-2.14,2.94-.29,5.89-.46,8.82-.77a11.12,11.12,0,0,0,10-9.53l-18.31-1.53c-7.47-.62-15-1.05-22.4-1.94-2.19-.26-4.36-1.59-6.3-2.81-2.3-1.44-3-3.49-1.78-5.91a33.56,33.56,0,0,1,5-7.8c3.65-3.95,5.82-8.17,4.81-13.66a12.85,12.85,0,0,1,0-2.17h7c.35-.93.61-1.74.94-2.51,1.26-2.93,3.65-3.95,6.61-2.8a8.18,8.18,0,0,1,2.09,1.15c4.5,3.6,9.52,4.26,15,2.75,5.19-1.46,10.32-1.6,15.26.89,2.62,1.32,3.54,3.18,3,6.06-.28,1.5-.72,3-1.13,4.46s-1,3.16-1.49,4.94c6.4,1.42,12.57,3.11,16.19,9.18C220.86,290.76,220.18,297,218.85,303.58ZM147.34,284c-.16,2.38,0,2.57,1.66,3.57,3.08,1.82,6.56,2,9.94,2.39,7.13.87,14.27,1.63,21.4,2.41,1.58.17,3.25.08,4.11-1.43a9.26,9.26,0,0,0-.1-9.64c-1.61-2.82-4.27-2.75-7-2.35-4.37.66-8.74,1.32-13.09,2C158.62,282,153,283,147.34,284Z"/><path d="M216,214.87l11.87,2.62c.42.09.83.2,1.25.31,9,2.48,11.28,10.49,4.85,17.31-3.47,3.69-8,5.18-12.82,5.83-9.82,1.32-18.39-1.28-25.41-8.39a13.35,13.35,0,0,1-4-9.79c0-5.2,3-9.17,8.08-10.25,8.23-1.74,16.5-3.28,24.76-4.87.45-.08,1.36.14,1.4.35a3.15,3.15,0,0,1-.18,2c-.24.46-1,.68-1.53.92-2.75,1.2-5.5,2.37-8.25,3.55Z"/><path class="cls-2" d="M147.34,284c5.62-1,11.28-2,16.95-3,4.35-.73,8.72-1.39,13.09-2,2.7-.4,5.36-.47,7,2.35a9.26,9.26,0,0,1,.1,9.64c-.86,1.51-2.53,1.6-4.11,1.43-7.13-.78-14.27-1.54-21.4-2.41-3.38-.42-6.86-.57-9.94-2.39C147.31,286.59,147.18,286.4,147.34,284Z"/></g></g></svg>