<svg xmlns="http://www.w3.org/2000/svg" viewBox="0 0 1049.13 539.5"><defs><style>.cls-1,.cls-3{fill:none;}.cls-1{stroke:#a4cbf2;stroke-width:10px;}.cls-1,.cls-4{stroke-miterlimit:10;}.cls-2,.cls-4{fill:#a4cbf2;}.cls-4{stroke:#fff;}</style></defs><g id="Calque_2" data-name="Calque 2"><g id="DeskBleu"><path class="cls-1" d="M1044.06,500.7c-.69,10.54-.16,21.15-.16,33.26h-14.56c-180.53,0-361.08,1.62-541.58-.69-118.11-1.52-236.18-8-354.18-13.94C99.18,517.59,64.9,511,30.87,504.88,4.78,500.21,5,499,5,471.85V451.51c4.09-.4,7.59-1.05,11.09-1,201.31.13,402.62-.55,603.92.82,114.48.79,229,4.8,342.78,18.71,23.26,2.84,46.15,8.74,69.16,13.5C1041,485.37,1044.69,491.15,1044.06,500.7Z"/><path class="cls-2" d="M520.92,140.48c-8.56-24.3-26.49-38.43-51.92-39.74-28.66-1.49-57.45-.35-87.39-.35v280.3H431.2v-125c11,0,20.27.42,29.49-.07,33-1.74,55.94-19.9,63.42-50.65A111.72,111.72,0,0,0,520.92,140.48Zm-47.64,65.4C465,221,447.56,217,431.83,217.22V138.59c15.17,1.65,33.47-6.31,41.6,9.53C482.63,166,483.16,187.79,473.28,205.88Z"/><path class="cls-2" d="M1010,225.78c-3.09-34.95-24.77-51.29-59.26-51.63s-55.61,16.93-60.87,52c-2.6,17.33-2.21,35.11-3.17,52.77.94,17.58.63,35.34,3.11,52.69,5.12,35.87,24.92,52.51,60,52.57,35.75.07,57.11-15.76,60.26-51.68A613.07,613.07,0,0,0,1010,225.78ZM963.25,331.09c-.09,7.59-2.32,14.75-12.66,14.86-11.14.12-13.12-7.69-13.4-15.72-.58-17.1-.18-34.24-.18-51.36,0-16.67-.29-33.33.08-50,.18-8.43,3.17-16.54,13-16.78,10-.25,13.26,7.81,13.32,16.25Q963.79,279.71,963.25,331.09Z"/><path class="cls-2" d="M764.4,221.9C759,190.06,739,174.74,705.74,174.17c-33-.57-56.86,15.58-59.68,47.74a660.84,660.84,0,0,0,0,115c2.8,32,25.22,47.27,58.31,47.34,34.41.08,54.52-14.83,60.11-47.31,3.21-18.62,3.1-37.8,4.48-56.7C767.52,260.63,767.63,241,764.4,221.9ZM718,330.74c-.24,7.51-2,14.89-12.35,15.21-11.07.33-13.61-7.24-13.71-15.37-.42-34.25-.72-68.52.4-102.74.18-5.45,7.14-14.18,12.23-15.23,9.59-2,13.25,6.93,13.47,15.38.45,17.58.14,35.18.14,52.77C718.2,297.42,718.57,314.1,718,330.74Z"/><path class="cls-2" d="M876.13,375.76c-.19,2.47-4.37,6.6-6.72,6.6-15.12,0-31,1.77-45.19-2.19-19.38-5.41-25.83-23-26.17-41.8-.66-36.18-.38-72.37-.48-108.56,0-5.49,0-11,0-17.25L778,210.83V178l19.11-2.41V121.19H845.9v55.56H876v34.1l-30.07,1.46V285c0,13.92-.1,27.85,0,41.76.18,17.65,2.07,19.38,19.15,18.66,3.16-.14,6.33,0,11.38,0C876.46,355.68,876.91,365.77,876.13,375.76Z"/><rect class="cls-2" x="15.56" y="388.54" width="355.77" height="36.79"/><rect class="cls-2" x="634.5" y="393.6" width="385.91" height="31.53"/><path class="cls-1" d="M635.4,172.64V227c-8.16-1.64-15.66-4.07-23.26-4.47-15.33-.82-24.26,8.06-24.31,23.48-.13,44.48,0,89,0,134.52H540.34V178.78c25.59-6.31,44.87-3.12,48.22,6.1Z"/><path class="cls-3" d="M188.84,281.32c-1.6-2.82-4.26-2.75-7-2.35-4.36.66-8.73,1.32-13.09,2-5.67,1-11.32,2-16.95,3-.15,2.38,0,2.57,1.67,3.57,3.07,1.82,6.55,2,9.94,2.39,7.12.87,14.26,1.63,21.4,2.41,1.57.17,3.25.08,4.11-1.43A9.24,9.24,0,0,0,188.84,281.32Z"/><path class="cls-4" d="M368.1,156.81C354.19,87.42,315.92,37,248.83,12.37,184.35-11.3,124.47.89,72.09,44.82,5.26,100.87-14.52,202.05,25.82,279.44c32.54,62.4,83.8,99.42,154.8,102.42,106,4.49,190.76-81.37,191.63-190.36C370.91,179.93,370.38,168.19,368.1,156.81ZM235,311.66a48.79,48.79,0,0,1-8.37,19.3,23.76,23.76,0,0,1-9.33,7.89c-9.8,4.51-19.93,7.62-30.88,7.55a51.19,51.19,0,0,1-33.54-12.29c-3.59-3-7.09-6.09-10.64-9.13-.65-.55-1.33-1.07-2.22-1.79,0,1.31-.06,2.37,0,3.41.4,6.09.68,12.17-1.29,18.09a28.15,28.15,0,0,1-10.17,13.92c-.23.17-.48.31-1.09.68.78-4,1.47-7.55,2.18-11.15q3.83-19.25,7.67-38.5c.14-.7.63-1.9.95-1.9a4.33,4.33,0,0,1,2.78.86,16,16,0,0,1,3.06,3.9c6.31,11.51,16.51,17.3,28.94,19.83,1.92.39,3.89.57,5.84.83a5.58,5.58,0,0,0,5.89-2.91c1.35-2.27,2.57-4.61,4-7.16-7.32-2.83-13.78-6.62-17.31-14.07,2.2-1.58,4.63-1.9,7.07-2.14,2.94-.29,5.88-.46,8.82-.77a11.12,11.12,0,0,0,10-9.53l-18.32-1.53c-7.47-.62-15-1.05-22.39-1.94-2.19-.26-4.36-1.59-6.3-2.81-2.31-1.44-3-3.49-1.78-5.91a32.92,32.92,0,0,1,5-7.8c3.65-3.95,5.82-8.17,4.81-13.66a12.85,12.85,0,0,1,0-2.17h7c.35-.93.6-1.74.94-2.51,1.26-2.93,3.64-3.95,6.61-2.8a8.12,8.12,0,0,1,2.08,1.15c4.51,3.6,9.53,4.26,15,2.75,5.19-1.46,10.31-1.6,15.26.89,2.62,1.32,3.54,3.18,3,6.06-.28,1.5-.72,3-1.14,4.46s-.95,3.16-1.49,4.94c6.41,1.42,12.58,3.11,16.2,9.18,3.5,5.88,2.83,12.13,1.49,18.7L235,300.75A25.1,25.1,0,0,1,235,311.66Zm3.44-76.55c-3.48,3.69-8,5.18-12.82,5.83-9.83,1.32-18.39-1.28-25.42-8.39a13.39,13.39,0,0,1-4-9.79c0-5.2,3-9.17,8.08-10.25,8.23-1.74,16.51-3.28,24.77-4.87.45-.08,1.35.14,1.39.35a3.22,3.22,0,0,1-.17,2c-.24.46-1,.68-1.53.92-2.75,1.2-5.51,2.37-8.26,3.55l0,.39,11.87,2.62c.41.09.83.2,1.24.31C242.65,220.28,244.9,228.29,238.47,235.11Zm87.45-95.44c-.23,1.93-1.57,3.83-2.73,5.53a4.85,4.85,0,0,0-.83,3.79c.85,5.21,1.73,10.43,2.38,15.66a11.32,11.32,0,0,1-.56,4.86c-3.09,9.13-6.57,18.22-13.17,25.34-5.9,6.38-9.21,14-12.78,21.59-.91,1.95-1.81,3.9-2.78,5.82-4.14,8.28-11.06,12.41-20.07,13.33-2.51.26-5,.32-7.55.44-2.18.1-2.77.58-3.16,2.78-.52,2.9-.87,5.84-1.51,8.72-.8,3.57-3.06,5.85-6.74,7a42.2,42.2,0,0,1-.57-5.05c0-12,.21-24,.22-36a59.46,59.46,0,0,0-.71-9.89,10.38,10.38,0,0,0-5.67-7.57c-2.49-1.32-5.12-2.38-7.68-3.56-1.72-.8-3.5-1.5-5.14-2.45-4.45-2.59-6.29-6.63-5.88-11.64.28-3.43,1-6.81,1.3-10.23,1.17-13.2-9.62-28.23-22.29-31.23-3.72-.87-7.32-.06-11,.51a44.93,44.93,0,0,1-19.54-1.12c-9.9-2.86-18,.19-24.94,7.28a32.09,32.09,0,0,0-9.7,21.7,28.7,28.7,0,0,0,.82,7.66c1.67,7-.16,12.55-5.81,17a84.83,84.83,0,0,0-7.43,6.62,23.13,23.13,0,0,0-6.86,16.61c-.06,3.24,0,6.48,0,10.15,1.47-1,2.7-1.62,3.77-2.48q3.53-2.82,6.93-5.81c5.08-4.44,10.6-7.6,18.11-6.19-1.63-2.37-3.37-3.79-5.77-4.29-5.16-1.08-10.33-2.13-15.5-3.19-.08-.23-.15-.46-.22-.69a37.58,37.58,0,0,1,5-2.7c5.84-2.13,11.57-1.08,17,1.34,8.68,3.86,14.87,10.14,17.6,19.43,1.5,5.1,0,9.34-4.12,12.63-9.33,7.47-19.75,8.23-30.61,2.21a14.64,14.64,0,0,0-8.62-2.09c-2.89.26-4.54,1.59-5.09,4.45-1.17,6.09-2.25,12.19-3.39,18.46-3-.83-5.58-2.61-6.52-5.94a68.76,68.76,0,0,1-1.44-8c-.62-3.89-1.29-4.51-5.29-4.57-5.59-.07-11-.84-16-3.64a26.31,26.31,0,0,1-10.13-10c-10.73-19-22.73-37.27-30.52-57.79a5.42,5.42,0,0,0-.58-.89V161c1-.76,1.9-1.91,3-2.21a5.46,5.46,0,0,0,4.12-4.46c.33-1.37.65-2.75,1-4.1a5.11,5.11,0,0,0-1.8-5.61,48.37,48.37,0,0,1-3.87-3.41,5.69,5.69,0,0,1-1.79-3.07c-.19-4.77-.08-9.54-.08-14.4,5.51-.68,8.24-4.25,9.94-9,1-2.89,2.16-5.75,3.45-8.54.78-1.67.21-2.31-1.32-2.77a9,9,0,0,1-2.84-1.23c-1.63-1.21-1.38-2.73.46-3.51,4.58-1.94,9.15-3.89,13.75-5.77A2.36,2.36,0,0,0,76,90.24c-.11-1.65-.08-3.31-.14-5-.37-9.46,3.29-16.79,11.36-21.89C93,59.74,98.69,56,104.33,52.23c2.58-1.75,4.82-4,7.43-5.73,7.59-5,15.29-9.83,22.94-14.73,3.13-2,6.49-3.3,10.26-2.89A50.77,50.77,0,0,1,150.35,30c4.1.91,8,.61,11.23-2.37a15.92,15.92,0,0,1,10.2-4.11c1.56-.09,3.11-.43,4.67-.65h3.32c1.81,5.29,5.69,7.69,11.09,8.23,7,.7,14.08,1.35,21,2.54,2.91.5,5.69,2.17,8.36,3.6A9,9,0,0,0,226,38.57c4.93-.72,9.92-1.46,14.83-.12a26.5,26.5,0,0,1,7,3.08c12.38,7.79,24.65,15.75,37,23.57,3.73,2.36,7.82,4.18,11.43,6.71,5.44,3.79,8.05,9.3,8.21,15.93.05,2.15.05,4.31-.07,6.45a2.43,2.43,0,0,0,1.8,2.77c4.42,1.67,8.82,3.4,13.18,5.24.82.34,1.9,1.22,2,2,.16,1.45-1.13,2-2.44,2.21l-5.42.94a12.3,12.3,0,0,0,.34,1.39c.86,2.29,1.87,4.55,2.62,6.88,1.57,4.9,4.66,7.86,10.46,8.15C326.67,129.08,326.57,134.41,325.92,139.67Z"/><path class="cls-4" d="M189,291c-.86,1.51-2.54,1.6-4.11,1.43-7.14-.78-14.28-1.54-21.4-2.41-3.39-.42-6.87-.57-9.94-2.39-1.69-1-1.82-1.19-1.67-3.57,5.63-1,11.28-2,16.95-3,4.36-.73,8.73-1.39,13.09-2,2.71-.4,5.37-.47,7,2.35A9.24,9.24,0,0,1,189,291Z"/><path class="cls-2" d="M189,291c-.86,1.51-2.54,1.6-4.11,1.43-7.14-.78-14.28-1.54-21.4-2.41-3.39-.42-6.87-.57-9.94-2.39-1.69-1-1.82-1.19-1.67-3.57,5.63-1,11.28-2,16.95-3,4.36-.73,8.73-1.39,13.09-2,2.71-.4,5.37-.47,7,2.35A9.24,9.24,0,0,1,189,291Z"/></g></g></svg>