<svg xmlns="http://www.w3.org/2000/svg" viewBox="0 0 654.27 557.41"><defs><style>.cls-1,.cls-3{fill:none;}.cls-1{stroke:#a4cbf2;stroke-width:10px;}.cls-1,.cls-4{stroke-miterlimit:10;}.cls-2,.cls-4{fill:#a4cbf2;}.cls-4{stroke:#fff;}</style></defs><g id="Calque_2" data-name="Calque 2"><g id="MobileBleu"><path class="cls-1" d="M649.23,532.9c-.43,6.08-.1,12.21-.1,19.2h-9c-111.93,0-223.87.94-335.78-.4-73.23-.87-146.43-4.62-219.59-8.05-21.33-1-42.59-4.82-63.69-8.34-16.17-2.7-16-3.39-16-19.07V504.49c2.54-.23,4.71-.61,6.88-.6,124.81.07,249.63-.32,374.43.47,71,.45,142,2.77,212.53,10.8,14.42,1.65,28.61,5.06,42.88,7.8C647.32,524,649.62,527.38,649.23,532.9Z"/><path class="cls-2" d="M5.26,398.72c0-18.45-.7-36.19.21-53.84.81-15.67,9.52-26.72,24.49-32a68.8,68.8,0,0,1,39.72-2c18.95,4.61,30.14,18.74,31.21,39.07.3,5.68,0,11.39,0,18.17h77v30.56ZM28.8,367.78H77.24c-.14-9.7,2.31-20.46-7-25.54a38.14,38.14,0,0,0-35.59-.1C24.91,347.16,29.81,358.43,28.8,367.78Z"/><path class="cls-2" d="M115.29,87.52c-10.89-.6-21.84-.35-32.52-2C61.14,82.32,50.5,69.33,50.7,48.06S61,13.45,82.51,11.55a377.42,377.42,0,0,1,65.79-.05c22.12,1.94,31.88,15.1,31.84,37.13,0,21.62-10.29,33.82-32.39,37C137.05,87.13,126.11,86.93,115.29,87.52Zm-.07-31c10.55,0,21.11.25,31.65-.11,4.94-.17,9.75-1.39,9.68-8.26-.07-6.36-4.48-7.74-9.16-7.79-21.1-.26-42.2-.25-63.3-.09-5.19,0-10.16,2.08-10,8.21s5.15,7.88,10.34,8C94.68,56.71,105,56.55,115.22,56.53Z"/><path class="cls-1" d="M151,162.85c-11.47-2-23.29-1.91-34.94-2.76-12.06.87-24.16.8-35.92,2.79C60.5,166.2,51.06,178.55,50.71,199s9.61,35,29.42,36.77a407.66,407.66,0,0,0,70.83,0c19.74-1.73,29.12-15.54,29.17-35.93C180.18,178.68,171,166.29,151,162.85Zm-3.9,44.66c-21.1.25-42.22.44-63.3-.25-3.36-.11-8.73-4.4-9.38-7.54-1.22-5.9,4.27-8.16,9.47-8.3,10.83-.27,21.68-.08,32.51-.08,10.27,0,20.54-.22,30.8.11,4.62.15,9.17,1.21,9.37,7.61C156.75,205.88,152.09,207.45,147.08,207.51Z"/><path class="cls-2" d="M18.07,112.67H52.31V94.15h21c.29,5.88.57,11.71.9,18.52H119c8.58,0,17.16.06,25.73,0,10.87-.11,11.94-1.28,11.49-11.8-.08-1.95,0-3.9,0-7,6.32,0,12.54-.28,18.7.2,1.51.12,4.06,2.69,4.06,4.14,0,9.32,1.09,19.1-1.35,27.84-3.33,11.94-14.19,15.92-25.75,16.13-22.29.4-44.59.23-66.89.29H74.37c-.39,4.33-.7,7.92-1.07,12.07H53c-.44-3.49-.89-7.05-1.48-11.78H18.07Z"/><rect class="cls-1" x="200.81" y="13.43" width="27.15" height="388.62"/><path class="cls-1" d="M177.83,271.69v29.23H53.55c-3.89-15.76-1.92-27.64,3.76-29.7-2.42-9.29-4.83-18.5-7.54-28.86H83.24c-1,5-2.51,9.65-2.76,14.33-.5,9.45,5,14.95,14.47,15C122.35,271.75,149.76,271.69,177.83,271.69Z"/><path class="cls-2" d="M8.13,428.75v54.3h638v-54.3Z"/><path class="cls-3" d="M445.52,281.32c-1.6-2.82-4.26-2.75-7-2.35-4.36.66-8.73,1.32-13.09,2-5.67,1-11.32,2-16.95,3-.15,2.38,0,2.57,1.67,3.57,3.07,1.82,6.55,2,9.94,2.39,7.12.87,14.26,1.63,21.4,2.41,1.57.17,3.25.08,4.11-1.43A9.24,9.24,0,0,0,445.52,281.32Z"/><path class="cls-4" d="M624.78,156.81C610.87,87.42,572.6,37,505.51,12.37,441-11.3,381.15.89,328.77,44.82c-66.83,56.05-86.61,157.23-46.27,234.62,32.54,62.4,83.8,99.42,154.8,102.42,106,4.49,190.76-81.37,191.63-190.36C627.59,179.93,627.06,168.19,624.78,156.81ZM491.71,311.66a48.79,48.79,0,0,1-8.37,19.3,23.76,23.76,0,0,1-9.33,7.89c-9.8,4.51-19.93,7.62-30.88,7.55a51.19,51.19,0,0,1-33.54-12.29C406,331.11,402.5,328,399,325c-.65-.55-1.33-1.07-2.22-1.79,0,1.31-.06,2.37,0,3.41.4,6.09.68,12.17-1.29,18.09a28.15,28.15,0,0,1-10.17,13.92c-.23.17-.48.31-1.09.68.78-4,1.47-7.55,2.18-11.15q3.83-19.25,7.67-38.5c.14-.7.63-1.9.95-1.9a4.33,4.33,0,0,1,2.78.86,16,16,0,0,1,3.06,3.9c6.31,11.51,16.51,17.3,28.94,19.83,1.92.39,3.89.57,5.84.83a5.58,5.58,0,0,0,5.89-2.91c1.35-2.27,2.57-4.61,4-7.16-7.32-2.83-13.78-6.62-17.31-14.07,2.2-1.58,4.63-1.9,7.07-2.14,2.94-.29,5.88-.46,8.82-.77a11.12,11.12,0,0,0,10-9.53l-18.32-1.53c-7.47-.62-15-1.05-22.39-1.94-2.19-.26-4.36-1.59-6.3-2.81-2.31-1.44-3-3.49-1.78-5.91a32.92,32.92,0,0,1,5.05-7.8c3.65-3.95,5.82-8.17,4.81-13.66a12.85,12.85,0,0,1,0-2.17h7c.35-.93.6-1.74.94-2.51,1.26-2.93,3.64-3.95,6.61-2.8a8.12,8.12,0,0,1,2.08,1.15c4.51,3.6,9.53,4.26,15,2.75,5.19-1.46,10.31-1.6,15.26.89,2.62,1.32,3.54,3.18,3,6.06-.28,1.5-.72,3-1.14,4.46s-.95,3.16-1.49,4.94c6.41,1.42,12.58,3.11,16.2,9.18,3.5,5.88,2.83,12.13,1.49,18.7l11.68-2.83A25.1,25.1,0,0,1,491.71,311.66Zm3.44-76.55c-3.48,3.69-8,5.18-12.82,5.83-9.83,1.32-18.39-1.28-25.42-8.39a13.39,13.39,0,0,1-4-9.79c0-5.2,3-9.17,8.08-10.25,8.23-1.74,16.51-3.28,24.77-4.87.45-.08,1.35.14,1.39.35a3.22,3.22,0,0,1-.17,2c-.24.46-1,.68-1.53.92-2.75,1.2-5.51,2.37-8.26,3.55l0,.39,11.87,2.62c.41.09.83.2,1.24.31C499.33,220.28,501.58,228.29,495.15,235.11Zm87.45-95.44c-.23,1.93-1.57,3.83-2.73,5.53A4.85,4.85,0,0,0,579,149c.85,5.21,1.73,10.43,2.38,15.66a11.32,11.32,0,0,1-.56,4.86c-3.09,9.13-6.57,18.22-13.17,25.34-5.9,6.38-9.21,14-12.78,21.59-.91,1.95-1.81,3.9-2.78,5.82-4.14,8.28-11.06,12.41-20.07,13.33-2.51.26-5,.32-7.55.44-2.18.1-2.77.58-3.16,2.78-.52,2.9-.87,5.84-1.51,8.72-.8,3.57-3.06,5.85-6.74,7a42.2,42.2,0,0,1-.57-5.05c0-12,.21-24,.22-36a59.46,59.46,0,0,0-.71-9.89,10.38,10.38,0,0,0-5.67-7.57c-2.49-1.32-5.12-2.38-7.68-3.56-1.72-.8-3.5-1.5-5.14-2.45-4.45-2.59-6.29-6.63-5.88-11.64.28-3.43,1-6.81,1.3-10.23,1.17-13.2-9.62-28.23-22.29-31.23-3.72-.87-7.32-.06-11,.51a44.93,44.93,0,0,1-19.54-1.12c-9.9-2.86-18,.19-24.94,7.28a32.09,32.09,0,0,0-9.7,21.7,28.7,28.7,0,0,0,.82,7.66c1.67,7-.16,12.55-5.81,17a84.83,84.83,0,0,0-7.43,6.62,23.13,23.13,0,0,0-6.86,16.61c-.06,3.24,0,6.48,0,10.15,1.47-1,2.7-1.62,3.77-2.48Q389.55,218,393,215c5.08-4.44,10.6-7.6,18.11-6.19-1.63-2.37-3.37-3.79-5.77-4.29-5.16-1.08-10.33-2.13-15.5-3.19-.08-.23-.15-.46-.22-.69a37.58,37.58,0,0,1,5-2.7c5.84-2.13,11.57-1.08,17,1.34,8.68,3.86,14.87,10.14,17.6,19.43,1.5,5.1,0,9.34-4.12,12.63-9.33,7.47-19.75,8.23-30.61,2.21a14.64,14.64,0,0,0-8.62-2.09c-2.89.26-4.54,1.59-5.09,4.45-1.17,6.09-2.25,12.19-3.39,18.46-3-.83-5.58-2.61-6.52-5.94a68.76,68.76,0,0,1-1.44-8c-.62-3.89-1.29-4.51-5.29-4.57-5.59-.07-11-.84-16-3.64a26.31,26.31,0,0,1-10.13-10c-10.73-19-22.73-37.27-30.52-57.79a5.42,5.42,0,0,0-.58-.89V161c1-.76,1.9-1.91,3-2.21a5.46,5.46,0,0,0,4.12-4.46c.33-1.37.65-2.75,1-4.1a5.11,5.11,0,0,0-1.8-5.61,48.37,48.37,0,0,1-3.87-3.41,5.69,5.69,0,0,1-1.79-3.07c-.19-4.77-.08-9.54-.08-14.4,5.51-.68,8.24-4.25,9.94-9,1-2.89,2.16-5.75,3.45-8.54.78-1.67.21-2.31-1.32-2.77a9,9,0,0,1-2.84-1.23c-1.63-1.21-1.38-2.73.46-3.51,4.58-1.94,9.15-3.89,13.75-5.77a2.36,2.36,0,0,0,1.71-2.66c-.11-1.65-.08-3.31-.14-5-.37-9.46,3.29-16.79,11.36-21.89C349.65,59.74,355.37,56,361,52.23c2.58-1.75,4.82-4,7.43-5.73,7.59-5,15.29-9.83,22.94-14.73,3.13-2,6.49-3.3,10.26-2.89A50.77,50.77,0,0,1,407,30c4.1.91,8,.61,11.23-2.37a15.92,15.92,0,0,1,10.2-4.11c1.56-.09,3.11-.43,4.67-.65h3.32c1.81,5.29,5.69,7.69,11.09,8.23,7,.7,14.08,1.35,21,2.54,2.91.5,5.69,2.17,8.36,3.6a9,9,0,0,0,5.77,1.29c4.93-.72,9.92-1.46,14.83-.12a26.5,26.5,0,0,1,7,3.08c12.38,7.79,24.65,15.75,37,23.57,3.73,2.36,7.82,4.18,11.43,6.71,5.44,3.79,8,9.3,8.21,15.93,0,2.15,0,4.31-.07,6.45a2.43,2.43,0,0,0,1.8,2.77c4.42,1.67,8.82,3.4,13.18,5.24.82.34,1.9,1.22,2,2,.16,1.45-1.13,2-2.44,2.21l-5.42.94a12.3,12.3,0,0,0,.34,1.39c.86,2.29,1.87,4.55,2.62,6.88,1.57,4.9,4.66,7.86,10.46,8.15C583.35,129.08,583.25,134.41,582.6,139.67Z"/><path class="cls-4" d="M445.63,291c-.86,1.51-2.54,1.6-4.11,1.43-7.14-.78-14.28-1.54-21.4-2.41-3.39-.42-6.87-.57-9.94-2.39-1.69-1-1.82-1.19-1.67-3.57,5.63-1,11.28-2,16.95-3,4.36-.73,8.73-1.39,13.09-2,2.71-.4,5.37-.47,7,2.35A9.24,9.24,0,0,1,445.63,291Z"/><path class="cls-2" d="M445.63,291c-.86,1.51-2.54,1.6-4.11,1.43-7.14-.78-14.28-1.54-21.4-2.41-3.39-.42-6.87-.57-9.94-2.39-1.69-1-1.82-1.19-1.67-3.57,5.63-1,11.28-2,16.95-3,4.36-.73,8.73-1.39,13.09-2,2.71-.4,5.37-.47,7,2.35A9.24,9.24,0,0,1,445.63,291Z"/></g></g></svg>