<svg xmlns="http://www.w3.org/2000/svg" xmlns:xlink="http://www.w3.org/1999/xlink" viewBox="0 0 644.77 570.34"><defs><style>.cls-1{fill:#fff;stroke:#fff;stroke-miterlimit:10;}</style></defs><g id="Calque_2" data-name="Calque 2"><g id="Calque_2-2" data-name="Calque 2"><path class="cls-1" d="M506.66,13.74c74.8,27.46,117.47,83.67,133,161,2.55,12.69,3.13,25.78,4.63,38.68C643.29,335,548.8,430.7,430.61,425.7,351.46,422.35,294.3,381.08,258,311.5c-45-86.28-22.93-199.09,51.58-261.59C368,.93,434.78-12.66,506.66,13.74"/><path d="M644.13,570h-9c-111.92,0-223.87.94-335.78-.4-73.22-.87-146.42-4.62-219.59-8-21.33-1-42.58-4.83-63.68-8.34-16.17-2.7-16-3.39-16-19.08V522.42c2.54-.23,4.71-.61,6.88-.61,124.81.08,249.62-.31,374.43.48,71,.45,142,2.77,212.53,10.8,14.42,1.64,28.61,5,42.88,7.8,5.6,1.08,7.9,4.42,7.51,9.93C643.79,556.91,644.13,563,644.13,570Z"/><path d="M.26,416.65c0-18.44-.7-36.18.21-53.84.81-15.67,9.51-26.72,24.49-32a68.79,68.79,0,0,1,39.72-2c18.95,4.6,30.14,18.73,31.21,39.06.3,5.68,0,11.39,0,18.17h77v30.56Zm23.53-30.94H72.24c-.14-9.69,2.31-20.46-7-25.54a38.14,38.14,0,0,0-35.59-.1C19.9,365.09,24.8,376.36,23.79,385.71Z"/><path d="M110.28,105.45c-10.88-.6-21.84-.35-32.52-2C56.13,100.25,45.5,87.26,45.7,66S56,31.38,77.51,29.48a377.31,377.31,0,0,1,65.78-.05c22.13,1.94,31.88,15.1,31.84,37.13,0,21.62-10.29,33.82-32.38,37C132.05,105.06,121.11,104.87,110.28,105.45Zm-.06-31c10.55,0,21.11.25,31.64-.11,4.95-.17,9.76-1.39,9.69-8.25-.07-6.37-4.48-7.75-9.16-7.8q-31.65-.37-63.3-.09c-5.2,0-10.17,2.08-10,8.21s5.15,7.88,10.34,8C89.68,74.64,100,74.48,110.22,74.46Z"/><path d="M111,178c11.65.85,23.47.78,34.93,2.76,20,3.44,29.21,15.83,29.16,37,0,20.39-9.44,34.2-29.17,35.93a407.77,407.77,0,0,1-70.84,0C55.31,252,45.36,237.29,45.71,217s9.79-32.83,29.41-36.14C86.88,178.82,99,178.88,111,178Zm.34,31.25c-10.84,0-21.68-.2-32.51.08-5.2.14-10.69,2.39-9.47,8.3.64,3.14,6,7.42,9.38,7.53,21.08.7,42.2.51,63.3.26,5-.07,9.67-1.63,9.46-8.45-.19-6.4-4.74-7.46-9.36-7.61C131.92,209,121.65,209.27,111.38,209.27Z"/><path d="M13.07,130.6H47.3V112.08h21c.29,5.88.57,11.71.9,18.52,15.23,0,30,0,44.8,0,8.58,0,17.15.06,25.73,0,10.87-.11,11.94-1.28,11.49-11.8-.08-2,0-3.9,0-7,6.32,0,12.54-.28,18.69.2,1.52.12,4.07,2.7,4.07,4.14,0,9.32,1.09,19.1-1.35,27.84-3.33,11.94-14.19,15.92-25.76,16.13-22.28.4-44.58.23-66.88.29H69.37c-.39,4.33-.71,7.92-1.07,12.07H48c-.44-3.49-.89-7-1.49-11.78H13.07Z"/><path d="M195.8,420H223V31.35H195.8Z"/><path d="M48.55,318.85c-3.89-15.77-1.92-27.64,3.76-29.71-2.43-9.28-4.83-18.49-7.54-28.85H78.24c-1,5-2.51,9.64-2.76,14.33-.5,9.44,5,14.95,14.47,15,27.4.08,54.81,0,82.88,0v29.23Z"/><image width="749" height="911" transform="translate(280.59 21.87) scale(0.42)" xlink:href="../../Avatar%20Mi9/logo1.png"/><path d="M3.13,446.68V501h638v-54.3Z"/></g></g></svg>