<svg xmlns="http://www.w3.org/2000/svg" xmlns:xlink="http://www.w3.org/1999/xlink" viewBox="0 0 1828.03 920.18"><defs><style>.cls-1{fill:#fff;stroke:#fff;stroke-miterlimit:10;}</style></defs><g id="Calque_2" data-name="Calque 2"><g id="Calque_1-2" data-name="Calque 1"><path class="cls-1" d="M633,329.45C631.49,517.16,485.53,665,303,657.3,180.69,652.13,92.4,588.38,36.37,480.9-33.12,347.62,1,173.37,116.06,76.83,206.26,1.17,309.4-19.82,420.44,21,536,63.37,601.89,150.2,625.85,269.7,629.78,289.3,630.69,309.52,633,329.45Z"/><path d="M1827.64,919.25H1802.4c-312.76-.06-625.56,2.79-938.27-1.2-204.61-2.6-409.16-13.77-613.6-24-59.6-3-119-14.39-177.95-24.88-45.19-8-44.83-10.1-44.82-56.87v-35c7.09-.69,13.16-1.8,19.22-1.8,348.76.23,697.52-.94,1046.26,1.42,198.34,1.35,396.68,8.26,593.87,32.22,40.29,4.89,80,15.06,119.82,23.26,15.65,3.22,22.07,13.16,21,29.62C1826.71,880.11,1827.64,898.4,1827.64,919.25Z"/><path d="M649.12,172.54c51.55,0,101.14-2,150.5.59,43.81,2.27,74.68,26.6,89.43,68.46a192.32,192.32,0,0,1,5.48,111c-12.88,53-52.37,84.24-109.21,87.23-15.88.84-31.84.13-50.79.13v215.3H649.12Zm86.49,65.79V373.75c27.09-.39,57.19,6.46,71.39-19.54,17-31.15,16.09-68.65.26-99.47C793.25,227.46,761.74,241.16,735.61,238.33Z"/><path d="M1519,480.1c1.67-30.43,1-61.05,5.47-90.9,9.06-60.47,45.38-90.2,104.84-89.63s96.74,28.73,102,88.91a1054.58,1054.58,0,0,1,.15,183.9c-5.43,61.85-42.21,89.12-103.79,89-60.43-.11-94.53-28.76-103.35-90.53C1520.13,541,1520.67,510.37,1519,480.1Zm86.63-.18c0,29.49-.7,59,.31,88.46.47,13.83,3.89,27.27,23.07,27.07,17.8-.19,21.64-12.53,21.8-25.6q1-88.47.24-176.94c-.12-14.53-5.82-28.42-23-28-16.86.42-22,14.39-22.34,28.91C1605.16,422.51,1605.6,451.22,1605.66,479.92Z"/><path d="M1316.17,482.22c-2.37,32.56-2.19,65.6-7.7,97.65-9.64,56-44.27,81.63-103.53,81.5-57-.14-95.6-26.38-100.42-81.53a1138.73,1138.73,0,0,1,0-198c4.87-55.38,45.94-83.2,102.79-82.22,57.23,1,91.76,27.37,101,82.21C1313.94,414.67,1313.75,448.5,1316.17,482.22Zm-87.35.95c0-30.29.54-60.6-.23-90.87-.38-14.55-6.69-29.89-23.2-26.49-8.77,1.81-20.75,16.83-21.06,26.23-1.94,58.93-1.41,118-.7,176.94.17,14,4.55,27,23.61,26.46,17.88-.54,20.86-13.26,21.28-26.18C1229.45,540.59,1228.81,511.87,1228.82,483.17Z"/><path d="M1448.74,208.36v95.69h51.76v58.73l-51.78,2.5c0,42.59,0,83.91,0,125.24,0,24-.17,48,.07,71.92.31,30.39,3.57,33.38,33,32.12,5.44-.23,10.9,0,19.58,0,0,17.68.78,35.05-.55,52.26-.33,4.24-7.54,11.36-11.59,11.36-26,0-53.38,3.06-77.81-3.77-33.38-9.31-44.5-39.66-45.08-72-1.13-62.31-.65-124.64-.83-187,0-9.45,0-18.9,0-29.7l-33.74-3V306.1l32.91-4.15V208.36Z"/><path d="M631.42,668.79v63.37H18.7V668.79Z"/><path d="M1084.66,731.81v-54.3h664.63v54.3Z"/><path d="M922.5,307.54c44.07-10.87,77.28-5.37,83,10.51L1086.21,297v93.56c-14.06-2.82-27-7-40.07-7.7-26.4-1.41-41.78,13.88-41.86,40.43-.22,76.61-.08,153.22-.08,231.68H922.5Z"/><image width="749" height="911" transform="translate(79.7 47.7) scale(0.64)" xlink:href="../../Avatar%20Mi9/logo1.png"/></g></g></svg>