<svg xmlns="http://www.w3.org/2000/svg" viewBox="0 0 644.77 570.34"><defs><style>.cls-1,.cls-2{fill:#fff;}.cls-1{stroke:#fff;stroke-miterlimit:10;}</style></defs><g id="Calque_2" data-name="Calque 2"><g id="Calque_2-2" data-name="Calque 2"><path class="cls-1" d="M506.66,13.74c74.8,27.46,117.47,83.67,133,161,2.55,12.69,3.13,25.78,4.63,38.68C643.29,335,548.8,430.7,430.61,425.7,351.46,422.35,294.3,381.08,258,311.5c-45-86.28-22.93-199.09,51.58-261.59C368,.93,434.78-12.66,506.66,13.74"/><path class="cls-2" d="M644.13,570h-9c-111.92,0-223.87.94-335.78-.4-73.22-.87-146.42-4.62-219.59-8-21.33-1-42.58-4.83-63.68-8.34-16.17-2.7-16-3.39-16-19.08V522.42c2.54-.23,4.71-.61,6.88-.61,124.81.08,249.62-.31,374.43.48,71,.45,142,2.77,212.53,10.8,14.42,1.64,28.61,5,42.88,7.8,5.6,1.08,7.9,4.42,7.51,9.93C643.79,556.91,644.13,563,644.13,570Z"/><path class="cls-2" d="M.26,416.65c0-18.44-.7-36.18.21-53.84.81-15.67,9.51-26.72,24.49-32a68.79,68.79,0,0,1,39.72-2c18.95,4.6,30.14,18.73,31.21,39.06.3,5.68,0,11.39,0,18.17h77v30.56Zm23.53-30.94H72.24c-.14-9.69,2.31-20.46-7-25.54a38.14,38.14,0,0,0-35.59-.1C19.9,365.09,24.8,376.36,23.79,385.71Z"/><path class="cls-2" d="M110.28,105.45c-10.88-.6-21.84-.35-32.52-2C56.13,100.25,45.5,87.26,45.7,66S56,31.38,77.51,29.48a377.31,377.31,0,0,1,65.78-.05c22.13,1.94,31.88,15.1,31.84,37.13,0,21.62-10.29,33.82-32.38,37C132.05,105.06,121.11,104.87,110.28,105.45Zm-.06-31c10.55,0,21.11.25,31.64-.11,4.95-.17,9.76-1.39,9.69-8.25-.07-6.37-4.48-7.75-9.16-7.8q-31.65-.37-63.3-.09c-5.2,0-10.17,2.08-10,8.21s5.15,7.88,10.34,8C89.68,74.64,100,74.48,110.22,74.46Z"/><path class="cls-2" d="M111,178c11.65.85,23.47.78,34.93,2.76,20,3.44,29.21,15.83,29.16,37,0,20.39-9.44,34.2-29.17,35.93a407.77,407.77,0,0,1-70.84,0C55.31,252,45.36,237.29,45.71,217s9.79-32.83,29.41-36.14C86.88,178.82,99,178.88,111,178Zm.34,31.25c-10.84,0-21.68-.2-32.51.08-5.2.14-10.69,2.39-9.47,8.3.64,3.14,6,7.42,9.38,7.53,21.08.7,42.2.51,63.3.26,5-.07,9.67-1.63,9.46-8.45-.19-6.4-4.74-7.46-9.36-7.61C131.92,209,121.65,209.27,111.38,209.27Z"/><path class="cls-2" d="M13.07,130.6H47.3V112.08h21c.29,5.88.57,11.71.9,18.52,15.23,0,30,0,44.8,0,8.58,0,17.15.06,25.73,0,10.87-.11,11.94-1.28,11.49-11.8-.08-2,0-3.9,0-7,6.32,0,12.54-.28,18.69.2,1.52.12,4.07,2.7,4.07,4.14,0,9.32,1.09,19.1-1.35,27.84-3.33,11.94-14.19,15.92-25.76,16.13-22.28.4-44.58.23-66.88.29H69.37c-.39,4.33-.71,7.92-1.07,12.07H48c-.44-3.49-.89-7-1.49-11.78H13.07Z"/><path class="cls-2" d="M195.8,420H223V31.35H195.8Z"/><path class="cls-2" d="M48.55,318.85c-3.89-15.77-1.92-27.64,3.76-29.71-2.43-9.28-4.83-18.49-7.54-28.85H78.24c-1,5-2.51,9.64-2.76,14.33-.5,9.44,5,14.95,14.47,15,27.4.08,54.81,0,82.88,0v29.23Z"/><path class="cls-2" d="M481.53,347.42c1.59-7.8,2.39-15.22-1.77-22.19-4.3-7.2-11.61-9.21-19.22-10.9.64-2.1,1.24-4,1.77-5.86s1-3.51,1.35-5.29c.64-3.41-.45-5.62-3.56-7.18-5.87-3-12-2.79-18.11-1.07-6.45,1.8-12.4,1-17.75-3.26a9.43,9.43,0,0,0-2.47-1.36c-3.52-1.37-6.35-.15-7.84,3.32-.4.92-.71,1.88-1.11,3h-8.31a14.58,14.58,0,0,0,0,2.58c1.2,6.51-1.38,11.52-5.71,16.2a39.56,39.56,0,0,0-6,9.25c-1.43,2.88-.62,5.31,2.11,7,2.3,1.44,4.88,3,7.48,3.32,8.82,1.06,17.71,1.58,26.57,2.31l21.74,1.82a13.21,13.21,0,0,1-11.89,11.3c-3.48.37-7,.57-10.46.91-2.89.29-5.77.67-8.38,2.55,4.18,8.84,11.84,13.33,20.53,16.69-1.66,3-3.1,5.8-4.7,8.49a6.64,6.64,0,0,1-7,3.46c-2.31-.31-4.65-.52-6.93-1-14.74-3-26.85-9.87-34.34-23.53a18.54,18.54,0,0,0-3.63-4.63,5.15,5.15,0,0,0-3.29-1c-.39,0-1,1.43-1.14,2.26q-4.59,22.84-9.09,45.69c-.85,4.26-1.67,8.53-2.59,13.23.72-.45,1-.61,1.3-.81a33.5,33.5,0,0,0,12.06-16.52c2.34-7,2-14.23,1.53-21.46-.08-1.24,0-2.49,0-4.06,1.06.86,1.86,1.47,2.63,2.13,4.21,3.61,8.37,7.27,12.63,10.83a60.75,60.75,0,0,0,39.8,14.59c13,.08,25-3.61,36.64-9a28.27,28.27,0,0,0,11.07-9.37A57.8,57.8,0,0,0,495.4,357a29.62,29.62,0,0,0,0-12.95Zm-3.37-105.26,0-.46c3.26-1.41,6.53-2.8,9.79-4.22.66-.29,1.53-.55,1.82-1.09A3.83,3.83,0,0,0,490,234c-.05-.25-1.12-.51-1.66-.41-9.8,1.88-19.62,3.71-29.38,5.78-6.05,1.28-9.56,6-9.59,12.16a15.9,15.9,0,0,0,4.79,11.62c8.34,8.43,18.5,11.52,30.16,10,5.76-.78,11.09-2.55,15.21-6.92,7.63-8.1,5-17.61-5.76-20.55-.49-.13-1-.26-1.48-.37Z"/><path d="M429.83,14.37c2.14,6.29,6.75,9.13,13.16,9.77,8.34.83,16.71,1.61,25,3,3.46.59,6.75,2.56,9.93,4.27A10.59,10.59,0,0,0,484.72,33c5.85-.85,11.78-1.73,17.6-.13a31.74,31.74,0,0,1,8.33,3.65c14.69,9.24,29.25,18.69,43.91,28,4.43,2.8,9.29,5,13.57,8,6.45,4.5,9.55,11,9.74,18.9.06,2.55.06,5.11-.08,7.66a2.86,2.86,0,0,0,2.13,3.28c5.25,2,10.47,4,15.64,6.22,1,.41,2.26,1.45,2.36,2.32.18,1.71-1.35,2.36-2.91,2.62l-6.43,1.11a13.31,13.31,0,0,0,.4,1.65c1,2.72,2.23,5.4,3.12,8.17,1.86,5.81,5.52,9.32,12.41,9.67-.37,6.36-.49,12.68-1.25,18.92-.28,2.3-1.88,4.55-3.25,6.57a5.74,5.74,0,0,0-1,4.49c1,6.19,2.05,12.37,2.82,18.59a13.37,13.37,0,0,1-.67,5.77c-3.66,10.82-7.79,21.61-15.62,30.07-7,7.56-10.93,16.6-15.17,25.61-1.08,2.31-2.15,4.63-3.29,6.91-4.92,9.81-13.13,14.72-23.82,15.81-3,.31-6,.38-9,.52-2.58.13-3.29.69-3.75,3.3-.61,3.45-1,6.93-1.79,10.35-.95,4.24-3.63,6.94-8,8.27a52,52,0,0,1-.68-6c0-14.23.25-28.46.26-42.69a71,71,0,0,0-.84-11.75,12.35,12.35,0,0,0-6.72-9c-3-1.56-6.07-2.82-9.11-4.22-2.05-.95-4.16-1.78-6.1-2.91-5.29-3.07-7.47-7.86-7-13.81.33-4.07,1.18-8.08,1.54-12.14,1.39-15.66-11.42-33.5-26.45-37.05-4.41-1-8.68-.07-13,.6a53.27,53.27,0,0,1-23.19-1.33c-11.75-3.39-21.36.23-29.6,8.63-7,7.16-11.1,15.7-11.5,25.76a33.61,33.61,0,0,0,1,9.09c2,8.26-.19,14.89-6.89,20.17a102.7,102.7,0,0,0-8.83,7.85,27.51,27.51,0,0,0-8.13,19.72c-.07,3.84,0,7.68,0,12,1.74-1.14,3.19-1.93,4.47-2.95q4.18-3.35,8.22-6.88c6-5.28,12.59-9,21.49-7.35-1.93-2.81-4-4.5-6.84-5.1-6.13-1.28-12.27-2.52-18.4-3.78l-.26-.82a44.54,44.54,0,0,1,5.91-3.2c6.93-2.53,13.73-1.28,20.21,1.59,10.3,4.58,17.64,12,20.88,23.05,1.79,6.06,0,11.09-4.89,15-11.06,8.86-23.43,9.76-36.32,2.62a17.38,17.38,0,0,0-10.23-2.47c-3.43.31-5.39,1.88-6,5.27-1.39,7.23-2.66,14.47-4,21.91-3.6-1-6.62-3.09-7.74-7.05a83.07,83.07,0,0,1-1.7-9.45c-.74-4.61-1.54-5.35-6.28-5.41-6.63-.09-13.07-1-19-4.33a31.2,31.2,0,0,1-12-11.87c-12.73-22.5-27-44.22-36.23-68.57a5.7,5.7,0,0,0-.68-1.05v-3.06c1.19-.91,2.25-2.27,3.59-2.63,2.88-.78,4.23-2.62,4.88-5.29.4-1.62.78-3.26,1.23-4.87a6.05,6.05,0,0,0-2.13-6.65,58.91,58.91,0,0,1-4.59-4c-.95-1-2.07-2.4-2.12-3.65-.23-5.66-.1-11.32-.1-17.09,6.54-.81,9.78-5,11.8-10.72,1.21-3.43,2.56-6.82,4.09-10.12.92-2,.25-2.75-1.57-3.29a10.91,10.91,0,0,1-3.36-1.47c-1.94-1.43-1.65-3.23.54-4.16,5.43-2.3,10.86-4.61,16.32-6.84a2.81,2.81,0,0,0,2-3.16c-.14-2-.1-3.93-.17-5.9-.44-11.22,3.9-19.92,13.48-26,6.83-4.32,13.62-8.71,20.31-13.23,3.07-2.07,5.72-4.77,8.81-6.8,9-5.93,18.15-11.66,27.23-17.48,3.72-2.38,7.7-3.91,12.17-3.43a59.35,59.35,0,0,1,6.4,1.38c4.87,1.08,9.48.72,13.33-2.81a18.9,18.9,0,0,1,12.1-4.88c1.85-.11,3.69-.51,5.54-.78Z"/><path d="M481.53,347.42l13.86-3.36a29.62,29.62,0,0,1,0,12.95,57.8,57.8,0,0,1-9.93,22.89,28.27,28.27,0,0,1-11.07,9.37c-11.63,5.35-23.65,9-36.64,9A60.75,60.75,0,0,1,398,383.64c-4.26-3.56-8.42-7.22-12.63-10.83-.77-.66-1.57-1.27-2.63-2.13,0,1.57-.07,2.82,0,4.06.47,7.23.81,14.44-1.53,21.46a33.5,33.5,0,0,1-12.06,16.52c-.28.2-.58.36-1.3.81.92-4.7,1.74-9,2.59-13.23q4.53-22.85,9.09-45.69c.17-.83.75-2.26,1.14-2.26a5.15,5.15,0,0,1,3.29,1,18.54,18.54,0,0,1,3.63,4.63c7.49,13.66,19.6,20.52,34.34,23.53,2.28.46,4.62.67,6.93,1a6.64,6.64,0,0,0,7-3.46c1.6-2.69,3-5.47,4.7-8.49-8.69-3.36-16.35-7.85-20.53-16.69,2.61-1.88,5.49-2.26,8.38-2.55,3.49-.34,7-.54,10.46-.91a13.21,13.21,0,0,0,11.89-11.3L429,337.3c-8.86-.73-17.75-1.25-26.57-2.31-2.6-.31-5.18-1.88-7.48-3.32-2.73-1.72-3.54-4.15-2.11-7a39.56,39.56,0,0,1,6-9.25c4.33-4.68,6.91-9.69,5.71-16.2a14.58,14.58,0,0,1,0-2.58h8.31c.4-1.1.71-2.06,1.11-3,1.49-3.47,4.32-4.69,7.84-3.32a9.43,9.43,0,0,1,2.47,1.36c5.35,4.27,11.3,5.06,17.75,3.26,6.16-1.72,12.24-1.89,18.11,1.07,3.11,1.56,4.2,3.77,3.56,7.18-.34,1.78-.86,3.54-1.35,5.29s-1.13,3.76-1.77,5.86c7.61,1.69,14.92,3.7,19.22,10.9C483.92,332.2,483.12,339.62,481.53,347.42Zm-84.85-23.21c-.18,2.82,0,3.05,2,4.24,3.64,2.16,7.77,2.33,11.79,2.83,8.46,1,16.93,1.94,25.39,2.86,1.87.21,3.86.1,4.88-1.69a11,11,0,0,0-.13-11.45c-1.9-3.34-5-3.26-8.26-2.78-5.19.78-10.37,1.56-15.54,2.43C410.06,321.79,403.35,323,396.68,324.21Z"/><path d="M478.16,242.16l14.08,3.1c.5.11,1,.24,1.48.37,10.72,2.94,13.39,12.45,5.76,20.55-4.12,4.37-9.45,6.14-15.21,6.92-11.66,1.56-21.82-1.53-30.16-10a15.9,15.9,0,0,1-4.79-11.62c0-6.17,3.54-10.88,9.59-12.16,9.76-2.07,19.58-3.9,29.38-5.78.54-.1,1.61.16,1.66.41a3.83,3.83,0,0,1-.21,2.4c-.29.54-1.16.8-1.82,1.09-3.26,1.42-6.53,2.81-9.79,4.22Z"/><path class="cls-2" d="M396.68,324.21c6.67-1.18,13.38-2.42,20.11-3.56,5.17-.87,10.35-1.65,15.54-2.43,3.21-.48,6.36-.56,8.26,2.78a11,11,0,0,1,.13,11.45c-1,1.79-3,1.9-4.88,1.69-8.46-.92-16.93-1.82-25.39-2.86-4-.5-8.15-.67-11.79-2.83C396.65,327.26,396.5,327,396.68,324.21Z"/><path class="cls-2" d="M3.13,446.68V501h638v-54.3Z"/></g></g></svg>