<svg xmlns="http://www.w3.org/2000/svg" xmlns:xlink="http://www.w3.org/1999/xlink" viewBox="0 0 691.2 363.6"><defs><style>.cls-1{fill:none;}.cls-2{clip-path:url(#clip-path);}.cls-3{fill:url(#Dégradé_sans_nom);}.cls-4{clip-path:url(#clip-path-2);}.cls-5{fill:#777bb3;}.cls-6{fill:#fff;}</style><clipPath id="clip-path" transform="translate(-14.4 -20.7)"><path class="cls-1" d="M14.4,202.5c0,100.4,154.73,181.8,345.6,181.8h0c190.87,0,345.6-81.4,345.6-181.8h0C705.6,102.1,550.87,20.7,360,20.7h0c-190.87,0-345.6,81.4-345.6,181.8"/></clipPath><radialGradient id="Dégradé_sans_nom" cx="-597.27" cy="742.94" r="1" gradientTransform="matrix(453.82, 0, 0, -453.82, 271276.97, 337245.88)" gradientUnits="userSpaceOnUse"><stop offset="0" stop-color="#aeb2d5"/><stop offset="0.3" stop-color="#aeb2d5"/><stop offset="0.75" stop-color="#484c89"/><stop offset="1" stop-color="#484c89"/></radialGradient><clipPath id="clip-path-2" transform="translate(-14.4 -20.7)"><rect class="cls-1" width="720" height="405"/></clipPath></defs><g id="Calque_2" data-name="Calque 2"><g id="svg3430"><g id="g3438"><g id="g3440"><g class="cls-2"><g id="g3442"><g id="g3448"><g id="g3450"><path id="path3462" class="cls-3" d="M14.4,202.5c0,100.4,154.73,181.8,345.6,181.8h0c190.87,0,345.6-81.4,345.6-181.8h0C705.6,102.1,550.87,20.7,360,20.7h0c-190.87,0-345.6,81.4-345.6,181.8" transform="translate(-14.4 -20.7)"/></g></g></g></g></g><g id="g3464"><g class="cls-4"><g id="g3466"><g id="g3472"><path id="path3474" class="cls-5" d="M360,370.8c183.41,0,332.1-75.35,332.1-168.3S543.41,34.2,360,34.2,27.9,109.55,27.9,202.5,176.59,370.8,360,370.8" transform="translate(-14.4 -20.7)"/></g></g></g></g><g id="g3476"><g class="cls-4"><g id="g3478"><g id="g3484"><path id="path3486" d="M202.17,223.37c15.08,0,26.34-2.78,33.46-8.27s11.92-14.82,14.47-27.94c2.38-12.26,1.47-20.81-2.69-25.43s-13.47-7.11-27.37-7.11h-24.1l-13.36,68.75Zm-78.83,84.68a3.75,3.75,0,0,1-3.68-4.46L155.07,121.4a3.75,3.75,0,0,1,3.68-3h76.32c24,0,41.84,6.51,53.06,19.36s14.76,31,10.35,53.65a83,83,0,0,1-26.06,46.67,74.18,74.18,0,0,1-27.8,16.66c-10,3.25-22.85,4.91-38.18,4.91H175.53L166.71,305a3.75,3.75,0,0,1-3.68,3Z" transform="translate(-14.4 -20.7)"/></g><g id="g3488"><path id="path3490" class="cls-6" d="M199,158.37h21c16.78,0,22.6,3.68,24.58,5.87,3.29,3.64,3.91,11.32,1.8,22.21-2.38,12.19-6.77,20.83-13.08,25.68s-16.94,7.49-31.17,7.49h-15Zm36-43.75H158.75a7.49,7.49,0,0,0-7.36,6.06L116,302.87a7.49,7.49,0,0,0,7.36,8.93H163a7.5,7.5,0,0,0,7.36-6.07l8.23-42.36h27.82c15.72,0,29-1.72,39.34-5.1A77.9,77.9,0,0,0,275,240.79a86.6,86.6,0,0,0,27.18-48.7c4.65-23.88.87-43-11.21-56.83s-30.77-20.64-55.88-20.64m-57,112.5h24.14q24,0,35.75-9.05t15.86-30.19q3.95-20.31-3.59-28.66T220,150.87H192.85L178,227.12m57-105q34.44,0,50.23,18.07t9.5,50.47a79.18,79.18,0,0,1-24.92,44.63,70.12,70.12,0,0,1-26.42,15.85q-14.53,4.73-37,4.73h-34L163,304.3H123.34l35.41-182.18h76.32" transform="translate(-14.4 -20.7)"/></g><g id="g3492"><path id="path3494" d="M389.48,259.62a3.76,3.76,0,0,1-3.68-4.47l15.66-80.61c1.49-7.67,1.12-13.17-1-15.49-1.32-1.42-5.29-3.81-17-3.81H355L335.35,256.58a3.76,3.76,0,0,1-3.68,3H292.29a3.73,3.73,0,0,1-2.89-1.37,3.77,3.77,0,0,1-.79-3.1L324,73a3.75,3.75,0,0,1,3.68-3h39.38a3.75,3.75,0,0,1,3.68,4.46l-8.55,44h30.53c23.26,0,39,4.1,48.21,12.53,9.36,8.61,12.29,22.37,8.69,40.9l-16.48,84.78a3.75,3.75,0,0,1-3.68,3Z" transform="translate(-14.4 -20.7)"/></g><g id="g3496"><path id="path3498" class="cls-6" d="M367.08,66.18H327.7a7.49,7.49,0,0,0-7.36,6.07L284.93,254.44a7.49,7.49,0,0,0,7.36,8.93h39.38A7.51,7.51,0,0,0,339,257.3L358.13,159h25.29c11.7,0,14.16,2.5,14.26,2.61.71.76,1.64,4.3.1,12.22l-15.66,80.62a7.49,7.49,0,0,0,7.36,8.93h40a7.5,7.5,0,0,0,7.36-6.07l16.48-84.78c3.86-19.91.55-34.83-9.83-44.38-9.91-9.1-26.51-13.52-50.75-13.52h-26l7.68-39.51a7.51,7.51,0,0,0-7.36-8.93m0,7.5-9.42,48.44h35.08q33.11,0,45.67,11.54T446,171.09l-16.47,84.78h-40l15.66-80.61q2.69-13.75-2-18.76t-19.76-5H352L331.67,255.87H292.29L327.7,73.68h39.38" transform="translate(-14.4 -20.7)"/></g><g id="g3500"><path id="path3502" d="M511.94,223.37c15.08,0,26.34-2.78,33.46-8.27s11.92-14.82,14.47-27.94c2.38-12.26,1.47-20.81-2.7-25.43s-13.46-7.11-27.36-7.11h-24.1l-13.36,68.75Zm-78.83,84.68a3.75,3.75,0,0,1-2.89-1.36,3.7,3.7,0,0,1-.79-3.1L464.84,121.4a3.74,3.74,0,0,1,3.68-3h76.32c24,0,41.83,6.51,53.06,19.36s14.76,31,10.35,53.65a82.92,82.92,0,0,1-26.07,46.67,74.22,74.22,0,0,1-27.79,16.66c-10,3.25-22.85,4.91-38.19,4.91H485.3L476.48,305a3.75,3.75,0,0,1-3.68,3Z" transform="translate(-14.4 -20.7)"/></g><g id="g3504"><path id="path3506" class="cls-6" d="M508.8,158.37h21c16.78,0,22.6,3.68,24.58,5.87,3.29,3.64,3.91,11.32,1.8,22.21-2.38,12.19-6.77,20.83-13.08,25.68s-16.94,7.49-31.17,7.49h-15Zm36-43.75H468.52a7.49,7.49,0,0,0-7.36,6.06L425.75,302.87a7.49,7.49,0,0,0,7.36,8.93H472.8a7.49,7.49,0,0,0,7.36-6.07l8.23-42.36h27.82c15.72,0,29-1.72,39.34-5.1a77.82,77.82,0,0,0,29.2-17.48,86.6,86.6,0,0,0,27.18-48.7c4.65-23.88.87-43-11.21-56.83S570,114.62,544.84,114.62m-57,112.5h24.14q24,0,35.75-9.05t15.86-30.19q3.94-20.31-3.59-28.66t-30.15-8.35H502.62L487.8,227.12m57-105q34.44,0,50.23,18.07t9.5,50.47a79.18,79.18,0,0,1-24.92,44.63,70.12,70.12,0,0,1-26.42,15.85q-14.54,4.73-37,4.73h-34L472.8,304.3H433.11l35.41-182.18h76.32" transform="translate(-14.4 -20.7)"/></g></g></g></g></g></g></g></svg>