<svg xmlns="http://www.w3.org/2000/svg" viewBox="0 0 64 64"><defs><style>.cls-1{fill:#4353ff;}.cls-2{fill:#fff;}</style></defs><g id="Calque_2" data-name="Calque 2"><g id="Calque_1-2" data-name="Calque 1"><circle class="cls-1" cx="32" cy="32" r="32"/><path class="cls-2" d="M41.4,28.2l-2.9,9.14c0-.7-2-15.86-2-15.86-4.6,0-7,3.26-8.32,6.72l-3.54,9.16c0-.66-.5-9.08-.5-9.08a7.47,7.47,0,0,0-7.26-6.78l3.76,23c4.8,0,7.4-3.26,8.74-6.72l3-7.8c0,.32,2,14.52,2,14.52A9.24,9.24,0,0,0,43.18,38L50,21.48c-4.8,0-7.32,3.26-8.6,6.72Z"/></g></g></svg>