<svg xmlns="http://www.w3.org/2000/svg" viewBox="0 0 384 512"><defs><style>.cls-1{fill:#fff;}</style></defs><g id="Calque_2" data-name="Calque 2"><g id="Calque_1-2" data-name="Calque 1"><polygon class="cls-1" points="384 128 256 128 256 0 384 128"/><path class="cls-1" d="M256.9,160c-18.6,0-32.9-14.3-32.9-32V0H48A48,48,0,0,0,0,48V464a48,48,0,0,0,48,48H336a48,48,0,0,0,48-48V160ZM184,458.77c-15.5,0-28.06-12.89-28.06-28.79s12.56-28.8,28.06-28.8S212,414.07,212,430,199.46,458.77,184,458.77ZM260.56,224c-6.28,84.5-63.49,53.5-57.25,149H162.15s-16.93-42,31.8-96.31c47.62-53.06,14.73-120-58.8-72.71l-12-37.44S268.6,115.9,260.56,224Z"/></g></g></svg>