<svg xmlns="http://www.w3.org/2000/svg" viewBox="0 0 512 512"><defs><style>.cls-1{fill:#a4cbf2;}</style></defs><g id="Calque_2" data-name="Calque 2"><g id="Calque_1-2" data-name="Calque 1"><path class="cls-1" d="M480,352H346.5l-45.25,45.25a64,64,0,0,1-90.5,0L165.5,352H32A32,32,0,0,0,0,384v96a32,32,0,0,0,32,32H480a32,32,0,0,0,32-32V384A32,32,0,0,0,480,352ZM432,456a24,24,0,1,1,24-24A24.07,24.07,0,0,1,432,456ZM233.4,374.6a31.92,31.92,0,0,0,45.22,0l128-128a32,32,0,0,0-45.25-45.24L288,274.8V32a32,32,0,0,0-64,0V274.8l-73.4-73.4a32,32,0,0,0-45.25,45.25Z"/></g></g></svg>