<svg xmlns="http://www.w3.org/2000/svg" viewBox="0 0 113.93 113.92"><defs><style>.cls-1{fill:#f05133;}</style></defs><g id="Calque_2" data-name="Calque 2"><g id="Calque_1-2" data-name="Calque 1"><path class="cls-1" d="M111.78,51.89,62,2.15a7.32,7.32,0,0,0-10.37,0L41.33,12.48l13.1,13.1a8.72,8.72,0,0,1,11,11.11L78.1,49.32a8.71,8.71,0,1,1-5.23,4.92L61.09,42.46v31A8.91,8.91,0,0,1,63.4,75.1a8.73,8.73,0,1,1-12.35,0,8.88,8.88,0,0,1,2.86-1.9V41.92a8.75,8.75,0,0,1-4.74-11.45L36.26,17.55,2.15,51.66A7.33,7.33,0,0,0,2.15,62l49.74,49.73a7.33,7.33,0,0,0,10.38,0l49.51-49.5a7.35,7.35,0,0,0,0-10.38"/></g></g></svg>