<svg xmlns="http://www.w3.org/2000/svg" viewBox="0 0 494.41 482.05"><defs><style>.cls-1{fill:#a4cbf2;}</style></defs><g id="Calque_2" data-name="Calque 2"><g id="Calque_1-2" data-name="Calque 1"><path class="cls-1" d="M165.4,388.62c0,2-2.3,3.6-5.2,3.6-3.3.3-5.6-1.3-5.6-3.6,0-2,2.3-3.6,5.2-3.6C162.8,384.72,165.4,386.32,165.4,388.62Zm-31.1-4.5c-.7,2,1.3,4.3,4.3,4.9,2.6,1,5.6,0,6.2-2s-1.3-4.3-4.3-5.2c-2.6-.7-5.5.3-6.2,2.3Zm44.2-1.7c-2.9.7-4.9,2.6-4.6,4.9.3,2,2.9,3.3,5.9,2.6s4.9-2.6,4.6-4.6S181.4,382.12,178.5,382.42ZM244,0C105.76,0,0,105,0,243.22,0,353.76,69.58,448.35,169,481.65c12.76,2.29,17.25-5.59,17.25-12.06,0-6.18-.3-40.27-.3-61.21,0,0-69.77,14.95-84.43-29.7,0,0-11.36-29-27.71-36.48,0,0-22.82-15.65,1.6-15.35,0,0,24.82,2,38.47,25.71C135.66,391,172.24,380,186.5,373.4c2.29-15.95,8.77-27,15.95-33.6-55.72-6.18-111.94-14.25-111.94-110.14,0-27.41,7.57-41.17,23.52-58.71-2.59-6.48-11.06-33.19,2.59-67.68,20.84-6.48,68.78,26.91,68.78,26.91a235.57,235.57,0,0,1,125.2,0s47.94-33.49,68.78-26.91C393,137.86,384.56,164.47,382,171c15.95,17.64,25.71,31.4,25.71,58.71,0,96.19-58.71,103.86-114.43,110.14,9.17,7.88,16.95,22.83,16.95,46.25,0,33.6-.3,75.16-.3,83.34,0,6.47,4.59,14.35,17.24,12.06,99.68-33.1,167.27-127.69,167.27-238.23C494.41,105,382.27,0,244,0ZM96.7,344.12c-1.3,1-1,3.3.7,5.2,1.6,1.6,3.9,2.3,5.2,1,1.3-1,1-3.3-.7-5.2C100.3,343.52,98,342.82,96.7,344.12ZM85.9,336c-.7,1.3.3,2.9,2.3,3.9,1.6,1,3.6.7,4.3-.7s-.3-2.9-2.3-3.9C88.2,334.72,86.6,335,85.9,336Zm32.4,35.6c-1.6,1.3-1,4.3,1.3,6.2,2.3,2.3,5.2,2.6,6.5,1,1.3-1.3.7-4.3-1.3-6.2C122.6,370.32,119.6,370,118.3,371.62Zm-11.4-14.7c-1.6,1-1.6,3.6,0,5.9s4.3,3.3,5.6,2.3c1.6-1.3,1.6-3.9,0-6.2-1.4-2.3-4-3.3-5.6-2Z"/></g></g></svg>