<svg xmlns="http://www.w3.org/2000/svg" viewBox="0 0 649.89 536.31"><defs><style>.cls-1{fill:#a4cbf2;}.cls-1,.cls-7{stroke:#409fff;}.cls-1,.cls-2,.cls-4,.cls-6,.cls-7,.cls-8{stroke-miterlimit:10;}.cls-2,.cls-5{fill:#409fff;}.cls-2,.cls-8{stroke:#5996d0;}.cls-3,.cls-4,.cls-6,.cls-7,.cls-8{fill:none;}.cls-4{stroke:#fff;}.cls-6{stroke:#a4cbf2;stroke-width:9px;}.cls-7{stroke-width:12px;}.cls-8{stroke-width:5px;}</style></defs><g id="Calque_2" data-name="Calque 2"><g id="Calque_1-2" data-name="Calque 1"><g id="Calque_2-2" data-name="Calque 2"><g id="Calque_1-2-2" data-name="Calque 1-2"><g id="Calque_2-2-2" data-name="Calque 2-2"><g id="MobileBleu"><path class="cls-1" d="M648.48,516.29c-.43,6.08-.1,12.21-.1,19.2h-9c-111.93,0-223.87.94-335.78-.4C230.37,534.22,157.17,530.47,84,527c-21.33-1-42.59-4.82-63.69-8.34-16.17-2.7-16-3.39-16-19.07V487.88c2.54-.23,4.71-.61,6.88-.6,124.9.07,249.37-.32,374.43.47,71,.45,142,2.77,212.53,10.8,14.42,1.65,28.61,5.06,42.88,7.8C646.57,507.39,648.87,510.77,648.48,516.29Z"/><polygon class="cls-1" points="189.37 28.82 206.85 27.82 206.85 416.44 189.37 417.44 189.37 28.82"/><path class="cls-2" d="M6.25,443.14v27.15h638V443.14Z"/><path class="cls-3" d="M444.82,295.71c-1.6-2.82-4.26-2.75-7-2.35l-13.09,2-17,3c-.15,2.38,0,2.57,1.67,3.57,3.07,1.82,6.55,2,9.94,2.39,7.12.87,14.26,1.63,21.4,2.41,1.57.17,3.25.08,4.11-1.43A9.26,9.26,0,0,0,444.82,295.71Z"/><path class="cls-4" d="M283.32,314.7c32.54,62.4,83.8,99.42,154.8,102.42,106,4.49,190.76-81.37,191.63-190.36-1.34-11.57-1.87-23.31-4.15-34.69C611.69,122.68,573.42,72.26,506.33,47.63m-13.8,299.29a48.65,48.65,0,0,1-8.37,19.3,23.63,23.63,0,0,1-9.33,7.89c-9.8,4.51-19.93,7.62-30.88,7.55a51.27,51.27,0,0,1-33.54-12.27c-3.59-3-7.09-6.11-10.59-9.11-.65-.55-1.33-1.07-2.22-1.79,0,1.31-.06,2.37,0,3.41.4,6.09.68,12.17-1.29,18.09a28.17,28.17,0,0,1-10.17,13.92c-.23.17-.48.31-1.09.68.78-4,1.47-7.55,2.18-11.15q3.82-19.26,7.67-38.5c.14-.7.63-1.9,1-1.9a4.28,4.28,0,0,1,2.78.86,15.66,15.66,0,0,1,3.06,3.9c6.31,11.51,16.51,17.3,28.94,19.83,1.92.39,3.89.57,5.84.83a5.58,5.58,0,0,0,5.89-2.91c1.35-2.27,2.57-4.61,4-7.16-7.32-2.83-13.78-6.62-17.31-14.07,2.2-1.58,4.63-1.9,7.07-2.14,2.94-.29,5.88-.46,8.82-.77a11.14,11.14,0,0,0,10-9.53l-18.32-1.53c-7.47-.62-15-1.05-22.39-1.94-2.19-.26-4.36-1.59-6.3-2.81-2.31-1.44-3-3.49-1.78-5.91a33.11,33.11,0,0,1,5.05-7.8c3.65-4,5.82-8.17,4.81-13.66a13.1,13.1,0,0,1,0-2.17h7c.35-.93.6-1.74.94-2.51,1.26-2.93,3.64-3.95,6.61-2.8a7.56,7.56,0,0,1,2.08,1.15c4.51,3.6,9.53,4.26,15,2.75,5.19-1.46,10.31-1.6,15.26.89,2.62,1.32,3.54,3.18,3,6.06-.28,1.5-.72,3-1.14,4.46s-.95,3.16-1.49,4.94c6.41,1.42,12.58,3.11,16.2,9.18,3.5,5.88,2.83,12.13,1.49,18.7l11.68-2.83A25.07,25.07,0,0,1,492.53,346.92ZM496,270.39c-3.48,3.69-8,5.18-12.82,5.83-9.83,1.32-18.39-1.28-25.42-8.39a13.43,13.43,0,0,1-4-9.79c0-5.2,3-9.17,8.08-10.25,8.23-1.74,16.51-3.28,24.77-4.87.45-.08,1.35.14,1.39.35a3.2,3.2,0,0,1-.17,2c-.24.46-1,.68-1.53.92-2.75,1.2-5.51,2.37-8.26,3.55v.39l11.87,2.62c.41.09.83.2,1.24.31C500.15,255.54,502.4,263.55,496,270.39ZM583.42,175c-.23,1.93-1.57,3.83-2.73,5.53a4.9,4.9,0,0,0-.87,3.8c.85,5.21,1.73,10.43,2.38,15.66a11.3,11.3,0,0,1-.56,4.86c-3.09,9.13-6.57,18.22-13.17,25.34-5.9,6.38-9.21,14-12.78,21.59-.91,2-1.81,3.9-2.78,5.82-4.09,8.26-11.09,12.39-20.09,13.31-2.51.26-5,.32-7.55.44-2.18.1-2.77.58-3.16,2.78-.52,2.9-.87,5.84-1.51,8.72-.8,3.57-3.06,5.85-6.74,7a43.11,43.11,0,0,1-.57-5.05c0-12,.21-24,.22-36a59.46,59.46,0,0,0-.71-9.89,10.35,10.35,0,0,0-5.67-7.57c-2.49-1.32-5.12-2.38-7.68-3.56-1.72-.8-3.5-1.5-5.14-2.45-4.45-2.59-6.29-6.63-5.88-11.64.28-3.43,1-6.81,1.3-10.23,1.17-13.2-9.62-28.23-22.29-31.23-3.72-.87-7.32-.06-11,.51a45,45,0,0,1-19.54-1.12c-9.9-2.86-18,.19-24.94,7.28a32.1,32.1,0,0,0-9.7,21.7,29.11,29.11,0,0,0,.82,7.66c1.67,7-.16,12.55-5.81,17a86.3,86.3,0,0,0-7.43,6.62A23.14,23.14,0,0,0,383,248.44c-.06,3.24,0,6.48,0,10.15,1.47-1,2.7-1.62,3.77-2.48q3.6-2.85,7.05-5.85c5.08-4.44,10.6-7.6,18.11-6.19-1.63-2.37-3.37-3.79-5.77-4.29-5.16-1.08-10.33-2.13-15.5-3.19-.08-.23-.15-.46-.22-.69a37.1,37.1,0,0,1,5-2.7c5.84-2.13,11.57-1.08,17,1.34,8.68,3.86,14.87,10.14,17.6,19.43,1.5,5.1,0,9.34-4.12,12.63-9.33,7.47-19.75,8.23-30.61,2.21a14.66,14.66,0,0,0-8.62-2.09c-2.89.26-4.54,1.59-5.09,4.45-1.17,6.09-2.25,12.19-3.39,18.46-3-.83-5.58-2.61-6.52-5.94a68.08,68.08,0,0,1-1.44-8c-.62-3.89-1.29-4.51-5.29-4.57-5.59-.07-11-.84-16-3.64a26.37,26.37,0,0,1-10.13-10c-10.73-19-22.73-37.27-30.52-57.79a4.86,4.86,0,0,0-.58-.89v-2.54c1-.76,1.9-1.91,3-2.21a5.45,5.45,0,0,0,4.11-4.46c.33-1.37.65-2.75,1-4.1a5.09,5.09,0,0,0-1.8-5.61,50.17,50.17,0,0,1-3.87-3.41,5.77,5.77,0,0,1-1.79-3.07c-.19-4.77-.08-9.54-.08-14.4,5.51-.68,8.24-4.25,9.94-9,1-2.89,2.16-5.75,3.45-8.54.78-1.67.21-2.31-1.32-2.77a9.21,9.21,0,0,1-2.84-1.23c-1.63-1.21-1.38-2.73.46-3.51,4.58-1.94,9.15-3.89,13.75-5.77a2.36,2.36,0,0,0,1.71-2.66c-.11-1.65-.08-3.31-.14-5-.37-9.46,3.29-16.79,11.36-21.89,5.79-3.63,11.51-7.37,17.14-11.14,2.58-1.75,4.82-4,7.43-5.73,7.59-5,15.29-9.83,22.94-14.73,3.13-2,6.49-3.3,10.26-2.89a49.75,49.75,0,0,1,5.4,1.12c4.1.91,8,.61,11.23-2.37a15.9,15.9,0,0,1,10.2-4.11c1.56-.09,3.11-.43,4.67-.65h3.32c1.81,5.29,5.69,7.69,11.09,8.23,7,.7,14.08,1.35,21,2.54,2.91.5,5.69,2.17,8.36,3.6a9.07,9.07,0,0,0,5.77,1.29c4.93-.72,9.92-1.46,14.83-.12a26.05,26.05,0,0,1,7,3.08c12.38,7.79,24.65,15.75,37,23.57,3.73,2.36,7.82,4.18,11.43,6.71,5.44,3.79,8,9.3,8.21,15.93,0,2.15,0,4.31-.07,6.45a2.44,2.44,0,0,0,1.8,2.77c4.42,1.67,8.82,3.4,13.18,5.24.82.34,1.9,1.22,2,2,.16,1.45-1.13,2-2.44,2.21l-5.42.94c.09.46.21.93.34,1.39.86,2.29,1.87,4.55,2.62,6.88,1.57,4.9,4.66,7.86,10.46,8.15-.23,5.4-.33,10.68-1,15.94Z"/><path class="cls-4" d="M492.53,346.92a48.65,48.65,0,0,1-8.37,19.3,23.63,23.63,0,0,1-9.33,7.89c-9.8,4.51-19.93,7.62-30.88,7.55a51.27,51.27,0,0,1-33.54-12.27c-3.59-3-7.09-6.11-10.59-9.11-.65-.55-1.33-1.07-2.22-1.79,0,1.31-.06,2.37,0,3.41.4,6.09.68,12.17-1.29,18.09a28.17,28.17,0,0,1-10.17,13.92c-.23.17-.48.31-1.09.68.78-4,1.47-7.55,2.18-11.15q3.82-19.26,7.67-38.5c.14-.7.63-1.9,1-1.9a4.28,4.28,0,0,1,2.78.86,15.66,15.66,0,0,1,3.06,3.9c6.31,11.51,16.51,17.3,28.94,19.83,1.92.39,3.89.57,5.84.83a5.58,5.58,0,0,0,5.89-2.91c1.35-2.27,2.57-4.61,4-7.16-7.32-2.83-13.78-6.62-17.31-14.07,2.2-1.58,4.63-1.9,7.07-2.14,2.94-.29,5.88-.46,8.82-.77a11.14,11.14,0,0,0,10-9.53l-18.32-1.53c-7.47-.62-15-1.05-22.39-1.94-2.19-.26-4.36-1.59-6.3-2.81-2.31-1.44-3-3.49-1.78-5.91a33.11,33.11,0,0,1,5.05-7.8c3.65-4,5.82-8.17,4.81-13.66a13.1,13.1,0,0,1,0-2.17h7c.35-.93.6-1.74.94-2.51,1.26-2.93,3.64-3.95,6.61-2.8a7.56,7.56,0,0,1,2.08,1.15c4.51,3.6,9.53,4.26,15,2.75,5.19-1.46,10.31-1.6,15.26.89,2.62,1.32,3.54,3.18,3,6.06-.28,1.5-.72,3-1.14,4.46s-.95,3.16-1.49,4.94c6.41,1.42,12.58,3.11,16.2,9.18,3.5,5.88,2.83,12.13,1.49,18.7l11.68-2.83A25.07,25.07,0,0,1,492.53,346.92Z"/><path class="cls-5" d="M492.53,346.92a48.65,48.65,0,0,1-8.37,19.3,23.63,23.63,0,0,1-9.33,7.89c-9.8,4.51-19.93,7.62-30.88,7.55a51.27,51.27,0,0,1-33.54-12.27c-3.59-3-7.09-6.11-10.59-9.11-.65-.55-1.33-1.07-2.22-1.79,0,1.31-.06,2.37,0,3.41.4,6.09.68,12.17-1.29,18.09a28.17,28.17,0,0,1-10.17,13.92c-.23.17-.48.31-1.09.68.78-4,1.47-7.55,2.18-11.15q3.82-19.26,7.67-38.5c.14-.7.63-1.9,1-1.9a4.28,4.28,0,0,1,2.78.86,15.66,15.66,0,0,1,3.06,3.9c6.31,11.51,16.51,17.3,28.94,19.83,1.92.39,3.89.57,5.84.83a5.58,5.58,0,0,0,5.89-2.91c1.35-2.27,2.57-4.61,4-7.16-7.32-2.83-13.78-6.62-17.31-14.07,2.2-1.58,4.63-1.9,7.07-2.14,2.94-.29,5.88-.46,8.82-.77a11.14,11.14,0,0,0,10-9.53l-18.32-1.53c-7.47-.62-15-1.05-22.39-1.94-2.19-.26-4.36-1.59-6.3-2.81-2.31-1.44-3-3.49-1.78-5.91a33.11,33.11,0,0,1,5.05-7.8c3.65-4,5.82-8.17,4.81-13.66a13.1,13.1,0,0,1,0-2.17h7c.35-.93.6-1.74.94-2.51,1.26-2.93,3.64-3.95,6.61-2.8a7.56,7.56,0,0,1,2.08,1.15c4.51,3.6,9.53,4.26,15,2.75,5.19-1.46,10.31-1.6,15.26.89,2.62,1.32,3.54,3.18,3,6.06-.28,1.5-.72,3-1.14,4.46s-.95,3.16-1.49,4.94c6.41,1.42,12.58,3.11,16.2,9.18,3.5,5.88,2.83,12.13,1.49,18.7l11.68-2.83A25.07,25.07,0,0,1,492.53,346.92Z"/><path class="cls-5" d="M496,270.39c-3.48,3.69-8,5.18-12.82,5.83-9.83,1.32-18.39-1.28-25.42-8.39a13.43,13.43,0,0,1-4-9.79c0-5.2,3-9.17,8.08-10.25,8.23-1.74,16.51-3.28,24.77-4.87.45-.08,1.35.14,1.39.35a3.2,3.2,0,0,1-.17,2c-.24.46-1,.68-1.53.92-2.75,1.2-5.51,2.37-8.26,3.55v.39l11.87,2.62c.41.09.83.2,1.24.31C500.15,255.54,502.4,263.55,496,270.39Z"/><path class="cls-5" d="M580.69,180.46a4.9,4.9,0,0,0-.87,3.8c.85,5.21,1.73,10.43,2.38,15.66a11.3,11.3,0,0,1-.56,4.86c-3.09,9.13-6.57,18.22-13.17,25.34-5.9,6.38-9.21,14-12.78,21.59-.91,2-1.81,3.9-2.78,5.82-4.09,8.28-11.09,12.41-20.09,13.33-2.51.26-5,.32-7.55.44-2.18.1-2.77.58-3.16,2.78-.52,2.9-.87,5.84-1.51,8.72-.8,3.57-3.06,5.85-6.74,7a43.11,43.11,0,0,1-.57-5.05c0-12,.21-24,.22-36a59.46,59.46,0,0,0-.71-9.89,10.35,10.35,0,0,0-5.67-7.57c-2.49-1.32-5.12-2.38-7.68-3.56-1.72-.8-3.5-1.5-5.14-2.45-4.45-2.59-6.29-6.63-5.88-11.64.28-3.43,1-6.81,1.3-10.23,1.17-13.2-9.62-28.23-22.29-31.23-3.72-.87-7.32-.06-11,.51a45,45,0,0,1-19.54-1.12c-9.9-2.86-18,.19-24.94,7.28a32.1,32.1,0,0,0-9.7,21.7,29.11,29.11,0,0,0,.82,7.66c1.67,7-.16,12.55-5.81,17a86.3,86.3,0,0,0-7.43,6.62A23.14,23.14,0,0,0,383,248.44c-.06,3.24,0,6.48,0,10.15,1.47-1,2.7-1.62,3.77-2.48q3.6-2.85,7.05-5.85c5.08-4.44,10.6-7.6,18.11-6.19-1.63-2.37-3.37-3.79-5.77-4.29-5.16-1.08-10.33-2.13-15.5-3.19-.08-.23-.15-.46-.22-.69a37.1,37.1,0,0,1,5-2.7c5.84-2.13,11.57-1.08,17,1.34,8.68,3.86,14.87,10.14,17.6,19.43,1.5,5.1,0,9.34-4.12,12.63-9.33,7.47-19.75,8.23-30.61,2.21a14.66,14.66,0,0,0-8.62-2.09c-2.89.26-4.54,1.59-5.09,4.45-1.17,6.09-2.25,12.19-3.39,18.46-3-.83-5.58-2.61-6.52-5.94a68.08,68.08,0,0,1-1.44-8c-.62-3.89-1.29-4.51-5.29-4.57-5.59-.07-11-.84-16-3.64a26.37,26.37,0,0,1-10.13-10c-10.73-19-22.73-37.27-30.52-57.79a4.86,4.86,0,0,0-.58-.89v-2.54c1-.76,1.9-1.91,3-2.21a5.45,5.45,0,0,0,4.11-4.46c.33-1.37.65-2.75,1-4.1a5.09,5.09,0,0,0-1.8-5.61,50.17,50.17,0,0,1-3.87-3.41,5.77,5.77,0,0,1-1.79-3.07c-.19-4.77-.08-9.54-.08-14.4,5.51-.68,8.24-4.25,9.94-9,1-2.89,2.16-5.75,3.45-8.54.78-1.67.21-2.31-1.32-2.77a9.21,9.21,0,0,1-2.84-1.23c-1.63-1.21-1.38-2.73.46-3.51,4.58-1.94,9.15-3.89,13.75-5.77a2.36,2.36,0,0,0,1.71-2.66c-.11-1.65-.08-3.31-.14-5-.37-9.46,3.29-16.79,11.36-21.89,5.79-3.63,11.51-7.37,17.14-11.14,2.58-1.75,4.82-4,7.43-5.73,7.59-5,15.29-9.83,22.94-14.73,3.13-2,6.49-3.3,10.26-2.89a49.75,49.75,0,0,1,5.4,1.12c4.1.91,8,.61,11.23-2.37a15.9,15.9,0,0,1,10.2-4.11c1.56-.09,3.11-.43,4.67-.65h3.32c1.81,5.29,5.69,7.69,11.09,8.23,7,.7,14.08,1.35,21,2.54,2.91.5,5.69,2.17,8.36,3.6a9.07,9.07,0,0,0,5.77,1.29c4.93-.72,9.92-1.46,14.83-.12a26.05,26.05,0,0,1,7,3.08c12.38,7.79,24.65,15.75,37,23.57,3.73,2.36,7.82,4.18,11.43,6.71,5.44,3.79,8,9.3,8.21,15.93,0,2.15,0,4.31-.07,6.45a2.44,2.44,0,0,0,1.8,2.77c4.42,1.67,8.82,3.4,13.18,5.24.82.34,1.9,1.22,2,2,.16,1.45-1.13,2-2.44,2.21l-5.42.94c.09.46.21.93.34,1.39.86,2.29,1.87,4.55,2.62,6.88,1.57,4.9,4.66,7.86,10.46,8.15-.23,5.35-.33,10.68-1,15.94C583.19,176.86,581.82,178.76,580.69,180.46Z"/><path class="cls-3" d="M444.88,305.39c-.86,1.51-2.54,1.6-4.11,1.43-7.14-.78-14.28-1.54-21.4-2.41-3.39-.42-6.87-.57-9.94-2.39-1.69-1-1.82-1.19-1.67-3.57l16.95-3q6.54-1.11,13.09-2c2.71-.4,5.37-.47,7,2.35A9.26,9.26,0,0,1,444.88,305.39Z"/></g></g><path class="cls-6" d="M444.82,22.39c110.78,0,200.57,92.29,200.57,206.14S555.6,434.67,444.82,434.67s-200.57-92.3-200.57-206.14"/><path class="cls-7" d="M395.77,18.35C493-19,602.71,31.19,640.79,130.4"/><path class="cls-5" d="M157.49,64.39c0-.84.08-1.69.08-2.54a37.72,37.72,0,0,0-3.08-15.19,40.41,40.41,0,0,0-8.39-12.5,38.48,38.48,0,0,0-12.5-8.47,39.36,39.36,0,0,0-30.54,0,38.59,38.59,0,0,0-12.5,8.47,40.59,40.59,0,0,0-8.39,12.5,37.73,37.73,0,0,0-3.09,15.19,23.86,23.86,0,0,0,.09,2.54,23.86,23.86,0,0,1-.09,2.53c0,.85,0,1.44.06,2.15s-.06,1.42-.06,2.14a38.57,38.57,0,0,0,3.09,15.28,39.26,39.26,0,0,0,72.32,0,38.39,38.39,0,0,0,3.08-15.28c0-.72,0-1.43,0-2.14s0-1.43,0-2.15S157.54,65.18,157.49,64.39ZM140.64,84.11a32.74,32.74,0,0,1-10,6.81,31,31,0,0,1-24.53,0,32.18,32.18,0,0,1-16.9-16.85A30.54,30.54,0,0,1,87,66.48a30.1,30.1,0,0,1,2.19-7.58,32,32,0,0,1,16.85-16.85,30.85,30.85,0,0,1,24.53,0A32,32,0,0,1,147.45,58.9a29.67,29.67,0,0,1,2.18,7.58,30.1,30.1,0,0,1-2.18,7.59A32.22,32.22,0,0,1,140.64,84.11Z"/><path class="cls-5" d="M156.47,396.81a3.63,3.63,0,0,0-2.69-1.11H122.44V364.05a37.47,37.47,0,0,0-3.16-15.27,39.54,39.54,0,0,0-21.21-20.89,39.11,39.11,0,0,0-15.51-3.08,37.08,37.08,0,0,0-15.11,3.08,39,39,0,0,0-12.26,8.39,40,40,0,0,0-8.31,12.5,38.46,38.46,0,0,0-3.06,15.27v48.61h110a3.71,3.71,0,0,0,2.69-1.11,3.83,3.83,0,0,0,.45-4.83,3.7,3.7,0,0,0,.65-2.15,3.59,3.59,0,0,0-1-2.53,3.8,3.8,0,0,0-.12-5.23ZM51.23,395.7V373.39a31.51,31.51,0,0,1,9.18-22.31,32.77,32.77,0,0,1,10-6.8,29.57,29.57,0,0,1,12.18-2.54,31.1,31.1,0,0,1,12.51,2.54,32.44,32.44,0,0,1,10.2,6.88,33.77,33.77,0,0,1,7,10.13,29,29,0,0,1,2.52,12.1v22.29Z"/><path class="cls-1" d="M156.47,303.68a3.8,3.8,0,0,0-2.69-1H118.33a30.3,30.3,0,0,1-12.27-2.53A32.06,32.06,0,0,1,89.21,283.3,30.3,30.3,0,0,1,86.68,271a3.56,3.56,0,0,0-1.11-2.77,4,4,0,0,0-5.38,0A3.63,3.63,0,0,0,79.08,271c0,1.3.08,2.57.19,3.83a4.71,4.71,0,0,0-.19,1.24c0,1.1.06,2.17.14,3.23a4.75,4.75,0,0,0-.14,1.07,37.66,37.66,0,0,0,4.35,18,45.6,45.6,0,0,0,2.67,4.32H82.56a3.83,3.83,0,0,0-2.69,1,3.48,3.48,0,0,0-1.05,2.57,3.65,3.65,0,0,0,1,2.62,3.38,3.38,0,0,0-1,2.48,3.9,3.9,0,0,0,.63,2.22,3.55,3.55,0,0,0-.63,2.08,3.63,3.63,0,0,0,1.1,2.76,3.83,3.83,0,0,0,2.69,1h71.21a3.8,3.8,0,0,0,2.69-1,3.52,3.52,0,0,0,1.1-2.76,3.41,3.41,0,0,0-.63-2.08,3.75,3.75,0,0,0,.63-2.22,3.31,3.31,0,0,0-1-2.45,3.65,3.65,0,0,0,1-2.62A3.38,3.38,0,0,0,156.47,303.68Z"/><path class="cls-1" d="M154.59,206.66a40.41,40.41,0,0,0-8.39-12.5,38.56,38.56,0,0,0-12.5-8.46,39.28,39.28,0,0,0-30.54,0,38.67,38.67,0,0,0-12.5,8.46,40.59,40.59,0,0,0-8.39,12.5,37.78,37.78,0,0,0-3.09,15.2,23.68,23.68,0,0,0,.09,2.53,24.15,24.15,0,0,1-.09,2.54c0,.86,0,1.43.06,2.14s-.06,1.43-.06,2.15a38.56,38.56,0,0,0,3.09,15.27,39.25,39.25,0,0,0,72.32,0,38.38,38.38,0,0,0,3.08-15.27c0-.72,0-1.44,0-2.15s0-1.42,0-2.14,0-1.7-.08-2.54.08-1.68.08-2.53A37.89,37.89,0,0,0,154.59,206.66Zm-13.85,37.51a32.41,32.41,0,0,1-10,6.8,30.94,30.94,0,0,1-24.53,0,32.53,32.53,0,0,1-10-6.8,32.87,32.87,0,0,1-6.8-10,30.34,30.34,0,0,1-2.19-7.58A30.29,30.29,0,0,1,89.41,219a32.09,32.09,0,0,1,16.85-16.85,30.94,30.94,0,0,1,24.53,0A32.15,32.15,0,0,1,147.65,219a29.86,29.86,0,0,1,2.18,7.59,29.91,29.91,0,0,1-2.18,7.58A32.62,32.62,0,0,1,140.74,244.17Z"/><path class="cls-5" d="M156.47,117.27a3.71,3.71,0,0,0-2.69-1,3.55,3.55,0,0,0-3.8,3.28,4.51,4.51,0,0,0,0,.52,30.29,30.29,0,0,1-2.53,12.26,31.88,31.88,0,0,1-17,16.77A31.5,31.5,0,0,1,118,151.56H86.68V120a3.54,3.54,0,0,0-1.11-2.77,4,4,0,0,0-5.38,0A3.58,3.58,0,0,0,79.08,120v31.49H47.43a3.77,3.77,0,0,0-3.8,3.74v0a3.67,3.67,0,0,0,.95,2.58,3.64,3.64,0,0,0-.95,2.5,3.87,3.87,0,0,0,.62,2.19,3.72,3.72,0,0,0-.62,2.1,3.66,3.66,0,0,0,1.11,2.77,3.93,3.93,0,0,0,2.69,1H119a38.55,38.55,0,0,0,15.11-3.33,39.64,39.64,0,0,0,20.5-20.74,37.67,37.67,0,0,0,3-14.95,4.24,4.24,0,0,0-.13-1.07c.08-1.06.13-2.14.13-3.22a4.21,4.21,0,0,0-.18-1.23q.18-1.9.18-3.84A3.52,3.52,0,0,0,156.47,117.27Z"/><polyline class="cls-8" points="195.77 27.82 203.51 27.82 203.51 416.44 195.77 416.44"/></g></g><path class="cls-8" d="M82.19,527c-21.33-1-42.59-4.82-63.69-8.34-16.17-2.7-16-3.39-16-19.07V487.88c2.54-.23,4.71-.61,6.88-.6,124.9.07,249.37-.32,374.43.47,71,.45,142,2.77,212.53,10.8,14.42,1.65,28.61,5.06,42.88,7.8,5.53,1,7.83,4.42,7.44,9.94"/><path class="cls-7" d="M514.51,411.11c-97.24,37.33-206.94-12.84-245-112"/></g></g></svg>