<svg xmlns="http://www.w3.org/2000/svg" viewBox="0 0 259.76 259.77"><defs><style>.cls-1{fill:#fff;}</style></defs><g id="Calque_2" data-name="Calque 2"><g id="Calque_1-2" data-name="Calque 1"><g id="Calque_2-2" data-name="Calque 2"><g id="Calque_1-2-2" data-name="Calque 1-2"><path class="cls-1" d="M259.31,186.25c0,22.42-21.81,40.59-48.25,40.59s-48.25-18.17-48.25-40.13c0-22.42,21.81-40.13,48.25-40.13a57,57,0,0,1,16.24,2.48V75.14L97.41,113.65V219.23C97,241.61,75.6,259.77,48.25,259.77S0,241.61,0,219.18s21.81-40.13,48.25-40.13a56.87,56.87,0,0,1,16.23,2.48V64.18c0-6.58,5.11-13.51,11.37-15.48L237.75.76A31.24,31.24,0,0,1,243.53,0a16.25,16.25,0,0,1,16.23,16.23Z"/></g></g></g></g></svg>