<svg xmlns="http://www.w3.org/2000/svg" viewBox="0 0 56.14 56.14"><defs><style>.cls-1{fill:#fff;}</style></defs><g id="Calque_2" data-name="Calque 2"><g id="svg2"><g id="g10"><g id="g12"><circle id="circle14" cx="28.07" cy="28.07" r="28.07"/><path id="path16" class="cls-1" d="M40.34,10.39a10.07,10.07,0,0,0-7.19,3.84,24.34,24.34,0,0,0-4.4,8.1C27,20.89,25.63,19,22.81,18.21a7.25,7.25,0,0,0-6.58,1.2,5.91,5.91,0,0,0-2,2.93c-.85,2.76.89,5.21,1.68,6.09l1.72,1.84a2.64,2.64,0,0,1,.8,2.67,3.19,3.19,0,0,1-4.05,1.87c-.82-.26-2-.86-1.73-1.71a7.28,7.28,0,0,1,.5-.92,5.88,5.88,0,0,0,.22-.56,2.29,2.29,0,0,0-1.29-2.86,1.91,1.91,0,0,0-2.63,1.32c-.49,1.6.27,4.48,4.35,5.73,4.77,1.47,8.8-1.13,9.38-4.52.36-2.12-.6-3.7-2.36-5.73L19.38,24a2.62,2.62,0,0,1-.27-3.47c.76-1,1.84-1.37,3.61-.89,2.57.7,3.72,2.49,5.64,3.93-.79,2.6-1.31,5.2-1.78,7.54l-.29,1.74C24.92,40,23.88,44,21.16,46.23a4.4,4.4,0,0,1-2.51,1,.73.73,0,0,1-.83-.59c0-.44.36-.64.6-.83a1.51,1.51,0,0,0,.87-1.58A2.38,2.38,0,0,0,16.73,42,3,3,0,0,0,14,45c.07,2,1.92,3.47,4.71,3.38,1.49,0,4.82-.66,8.1-4.56,3.82-4.47,4.89-9.6,5.69-13.35l.9-5c.5.06,1,.1,1.61.12,4.76.1,7.14-2.37,7.17-4.16a1.94,1.94,0,0,0-1.74-2.13,2,2,0,0,0-1.88,1.53c-.22,1,1.51,1.9.16,2.78a7.58,7.58,0,0,1-5.11.71L34,21.9c.9-4.63,2-10.31,6.23-10.45.3,0,1.43,0,1.45.75,0,.25-.05.32-.34.88a2,2,0,0,0-.4,1.26,2,2,0,0,0,2.24,1.91,2.42,2.42,0,0,0,2.21-2.62C45.35,11.58,43.19,10.29,40.34,10.39Z"/></g></g></g></g></svg>