<svg xmlns="http://www.w3.org/2000/svg" viewBox="0 0 725 725"><defs><style>.cls-1{fill:#fff;}.cls-2{fill:none;}</style></defs><g id="Calque_2" data-name="Calque 2"><g id="Calque_1-2" data-name="Calque 1"><path class="cls-1" d="M362.5,0C162.3,0,0,162.3,0,362.5S162.3,725,362.5,725,725,562.7,725,362.5,562.7,0,362.5,0ZM628,383H392V636a20,20,0,0,1-20,20H337a20,20,0,0,1-20-20V383H81a20,20,0,0,1-20-20V328a20,20,0,0,1,20-20H317V89a20,20,0,0,1,20-20h35a20,20,0,0,1,20,20V308H628a20,20,0,0,1,20,20v35A20,20,0,0,1,628,383Z"/><path class="cls-2" d="M648,328v35a20,20,0,0,1-20,20H392V636a20,20,0,0,1-20,20H337a20,20,0,0,1-20-20V383H81a20,20,0,0,1-20-20V328a20,20,0,0,1,20-20H317V89a20,20,0,0,1,20-20h35a20,20,0,0,1,20,20V308H628A20,20,0,0,1,648,328Z"/></g></g></svg>