<svg xmlns="http://www.w3.org/2000/svg" viewBox="0 0 384 512"><defs><style>.cls-1{fill:#fff;}.cls-2{fill:none;stroke:#fff;stroke-miterlimit:10;}</style></defs><g id="Calque_2" data-name="Calque 2"><g id="Calque_1-2" data-name="Calque 1"><polygon class="cls-1" points="384 128 256 128 256 0 384 128"/><path class="cls-1" d="M256.9,160c-18.6,0-32.9-14.3-32.9-32V0H48A48,48,0,0,0,0,48V464a48,48,0,0,0,48,48H336a48,48,0,0,0,48-48V160Zm51.41,221.78c0,22.42-21.81,40.59-48.25,40.59s-48.25-18.17-48.25-40.13c0-22.42,21.81-40.13,48.25-40.13a57,57,0,0,1,16.24,2.48V270.67L146.41,309.18V414.76C146,437.14,124.6,455.3,97.25,455.3S49,437.14,49,414.71s21.81-40.13,48.25-40.13a56.87,56.87,0,0,1,16.23,2.48V259.71c0-6.58,5.11-13.51,11.37-15.48l161.9-47.94a31.06,31.06,0,0,1,5.78-.76,16.25,16.25,0,0,1,16.23,16.23Z"/><path class="cls-2" d="M308.76,211.76l-.45,170c0,22.42-21.81,40.59-48.25,40.59s-48.25-18.17-48.25-40.13c0-22.42,21.81-40.13,48.25-40.13a57,57,0,0,1,16.24,2.48V270.67L146.41,309.18V414.76C146,437.14,124.6,455.3,97.25,455.3S49,437.14,49,414.71s21.81-40.13,48.25-40.13a56.87,56.87,0,0,1,16.23,2.48V259.71c0-6.58,5.11-13.51,11.37-15.48l161.9-47.94a31.06,31.06,0,0,1,5.78-.76A16.25,16.25,0,0,1,308.76,211.76Z"/></g></g></svg>